<?xml version="1.0" standalone="no"?>
<!DOCTYPE svg PUBLIC "-//W3C//DTD SVG 20010904//EN"
 "http://www.w3.org/TR/2001/REC-SVG-20010904/DTD/svg10.dtd">
<svg version="1.0" xmlns="http://www.w3.org/2000/svg"
 width="1280.000000pt" height="1280.000000pt" viewBox="0 0 1280.000000 1280.000000"
 preserveAspectRatio="xMidYMid meet">
<g transform="translate(0.000000,1280.000000) scale(0.100000,-0.100000)"
fill="#000000" stroke="none">
<path d="M6190 12789 c-58 -4 -177 -13 -265 -19 -1086 -75 -2161 -445 -3080
-1060 -1215 -813 -2123 -2032 -2550 -3424 -139 -453 -231 -935 -264 -1391 -37
-511 -37 -479 0 -985 41 -571 169 -1167 369 -1710 685 -1868 2217 -3323 4114
-3905 453 -139 935 -231 1391 -264 511 -37 479 -37 985 0 1196 86 2362 524
3335 1251 1083 809 1886 1947 2280 3232 139 453 231 935 264 1391 37 511 37
479 0 985 -41 571 -169 1167 -369 1710 -685 1868 -2217 3323 -4114 3905 -458
141 -943 232 -1401 264 -82 6 -213 15 -291 21 -156 11 -249 11 -404 -1z m630
-760 c1287 -91 2518 -638 3465 -1538 1182 -1124 1821 -2691 1755 -4309 -33
-801 -215 -1528 -559 -2237 -657 -1351 -1807 -2377 -3226 -2877 -512 -181
-1069 -285 -1635 -307 -1445 -56 -2819 428 -3925 1383 -129 111 -401 381 -521
518 -630 716 -1062 1551 -1274 2468 -111 477 -158 980 -139 1488 41 1099 397
2146 1037 3047 912 1284 2332 2138 3882 2334 377 48 749 58 1140 30z"/>
<path d="M6226 9889 c-1074 -55 -1998 -469 -2605 -1166 -442 -508 -758 -1165
-895 -1863 -59 -302 -71 -436 -70 -835 0 -388 6 -471 55 -745 77 -427 244
-879 457 -1234 393 -655 1029 -1106 1915 -1356 238 -68 531 -122 851 -156 195
-21 803 -30 1021 -15 777 55 1408 251 1945 607 179 118 276 198 440 363 202
203 341 390 465 624 l57 107 -390 0 -390 0 -65 -77 c-199 -239 -459 -439 -767
-592 -392 -194 -810 -299 -1362 -342 -202 -16 -770 -7 -948 15 -629 77 -1143
250 -1535 517 -450 306 -774 754 -958 1326 -85 261 -124 501 -134 808 -19 617
133 1279 421 1830 407 780 1128 1290 2041 1444 457 78 997 74 1410 -10 524
-106 961 -347 1279 -704 289 -324 455 -676 522 -1105 26 -162 26 -540 1 -695
-42 -254 -112 -475 -227 -710 -159 -325 -370 -586 -635 -785 -260 -196 -442
-250 -544 -164 -38 32 -54 80 -53 164 1 95 -5 63 313 1616 159 777 292 1426
295 1443 l7 31 -487 0 -486 0 -5 -22 c-3 -13 -23 -103 -44 -202 -22 -98 -44
-183 -49 -188 -6 -6 -26 14 -55 55 -178 250 -422 395 -734 437 -128 18 -417 8
-545 -19 -425 -87 -785 -329 -1087 -731 -301 -400 -484 -837 -563 -1345 -25
-167 -36 -536 -19 -685 55 -482 246 -842 580 -1093 160 -120 319 -193 522
-239 92 -20 130 -23 319 -23 199 0 223 2 321 27 234 59 425 160 616 326 58 51
84 68 90 59 5 -7 19 -38 31 -70 44 -117 134 -222 234 -273 98 -50 181 -66 370
-71 779 -23 1426 311 1934 999 312 422 492 869 560 1393 21 160 24 549 5 710
-68 592 -279 1114 -624 1548 -410 515 -1066 880 -1818 1011 -330 57 -622 74
-983 55z m124 -2265 c101 -30 191 -84 271 -164 128 -128 202 -285 235 -502 19
-125 14 -408 -11 -562 -53 -333 -189 -749 -322 -981 -192 -337 -455 -529 -768
-560 -304 -30 -573 159 -679 475 -97 292 -85 709 34 1177 56 217 91 317 170
480 178 365 448 595 768 653 67 13 238 4 302 -16z"/>
</g>
</svg>
