<?xml version="1.0"?>
<svg xmlns:rdf="http://www.w3.org/1999/02/22-rdf-syntax-ns#" xmlns="http://www.w3.org/2000/svg" xmlns:cc="http://web.resource.org/cc/" xmlns:dc="http://purl.org/dc/elements/1.1/" xmlns:svg="http://www.w3.org/2000/svg" id="svg2" viewBox="0 0 403.86 238.14" version="1.0">
  <g id="layer1" transform="translate(-88.964 -177.22)">
    <g id="g9011">
      <path id="path4128" fill-rule="evenodd" fill="#dde6dc" d="m340.91 177.72l-251.44 105 82.84 132.16 320-186.44-151.4-50.72zm-0.22 7.78l130.81 44.09-290.84 166.13-72.91-111.31 232.94-98.91z"/>
      <path id="path2186" fill-rule="evenodd" fill="#51badc" d="m114.46 294.33l226.16-96.52 115.85 40.31-275.67 157.5-66.34-101.29z"/>
      <path id="path2170" stroke="#000" stroke-width="1px" fill="none" d="m89.464 282.72l82.856 132.14 320-186.43-151.43-50.71-251.43 105z"/>
      <path id="path8040" fill-rule="evenodd" fill="#aac1a8" d="m107.86 284.33l232.76-98.75 130.81 43.93-15 8.66-115.72-40.36-225.84 97.41-7.01-10.89z"/>
      <path id="path2172" stroke="#000" stroke-width=".91079px" fill="none" d="m107.76 284.39l72.89 111.32 290.84-166.11-130.81-44.09-232.92 98.88z"/>
      <path id="path2174" stroke="#000" stroke-width="1px" fill="none" d="m114.82 295.22l225.9-97.38 115.71 40.24"/>
      <path id="path2176" stroke="#000" stroke-width="1px" fill="none" d="m340.72 198.06v-12.2"/>
      <path id="path2184" d="m342.81 310.33c0.39 1.89 5.67 1.26 6.22-1.15 1.07-4.7 2.61-9.47 2.69-14.33 0.04-2.23-1.65-4.46-3.64-5.35-3.88-1.71-7.99-2.97-12.05-4.24-3.12-0.98-6.45-1.62-9.65-1.72-4.76 0.17-6.47 5.87-7.3 10.06-1.58 7.88-3.23 19.88-4.75 27.78 1.34 1.32 5.06 1.32 5.31-0.88 0.29-2.6 0.91-9.18 1.4-11.76 1.06-5.64 1.87-11.38 3.42-16.89 3.39-5.59 13.25-0.86 17.99 0.98 1.71 0.66 3.18 2.39 2.58 4.71-1.08 4.14-2.97 9.13-2.22 12.79z" fill-rule="evenodd" stroke="#000" stroke-width="1px" fill="#b7b7b7"/>
      <path id="path2178" d="m324.13 321.36c0.39 1.89 5.67 1.26 6.22-1.15 1.07-4.7 2.62-9.47 2.69-14.33 0.04-2.23-1.65-4.47-3.64-5.35-3.88-1.71-7.99-2.97-12.05-4.24-3.12-0.98-6.45-1.62-9.64-1.72-4.77 0.17-6.48 5.86-7.31 10.06-1.58 7.88-3.23 19.88-4.75 27.78 1.34 1.32 5.07 1.32 5.31-0.88 0.29-2.6 0.91-9.18 1.4-11.76 1.06-5.64 1.87-11.38 3.42-16.89 3.39-5.59 13.25-0.86 18 0.98 1.7 0.65 3.17 2.39 2.57 4.71-1.08 4.14-2.97 9.13-2.22 12.79z" fill-rule="evenodd" stroke="#000" stroke-width="1px" fill="#b7b7b7"/>
      <path id="path5111" fill-rule="evenodd" fill="#dde6dc" d="m295.05 341.11l29.07-16.36-1.76-9.97-27.63 16.03"/>
      <path id="path5131" stroke="#000" stroke-width=".91079px" fill="none" d="m294.09 330.92l28.68-16.38"/>
    </g>
  </g>
  <metadata>
    <rdf:RDF>
      <cc:Work>
        <dc:format>image/svg+xml</dc:format>
        <dc:type rdf:resource="http://purl.org/dc/dcmitype/StillImage"/>
        <cc:license rdf:resource="http://creativecommons.org/licenses/publicdomain/"/>
        <dc:publisher>
          <cc:Agent rdf:about="http://openclipart.org/">
            <dc:title>Openclipart</dc:title>
          </cc:Agent>
        </dc:publisher>
        <dc:title>Swimming pool</dc:title>
        <dc:date>2010-06-15T20:02:44</dc:date>
        <dc:description>A swimming pool, with a swimming pool ladder.</dc:description>
        <dc:source>http://openclipart.org/detail/66985/swimming-pool-by-laobc-66985</dc:source>
        <dc:creator>
          <cc:Agent>
            <dc:title>laobc</dc:title>
          </cc:Agent>
        </dc:creator>
        <dc:subject>
          <rdf:Bag>
            <rdf:li>clip art</rdf:li>
            <rdf:li>clipart</rdf:li>
            <rdf:li>ladder</rdf:li>
            <rdf:li>pool ladder</rdf:li>
            <rdf:li>summer</rdf:li>
            <rdf:li>summer2010</rdf:li>
            <rdf:li>swimming pool ladder</rdf:li>
          </rdf:Bag>
        </dc:subject>
      </cc:Work>
      <cc:License rdf:about="http://creativecommons.org/licenses/publicdomain/">
        <cc:permits rdf:resource="http://creativecommons.org/ns#Reproduction"/>
        <cc:permits rdf:resource="http://creativecommons.org/ns#Distribution"/>
        <cc:permits rdf:resource="http://creativecommons.org/ns#DerivativeWorks"/>
      </cc:License>
    </rdf:RDF>
  </metadata>
</svg>
