<?xml version="1.0" encoding="utf-8"?>
<svg version="1.1" id="Layer_1" xmlns="http://www.w3.org/2000/svg" xmlns:xlink="http://www.w3.org/1999/xlink" x="0px" y="0px"
	 viewBox="0 0 1640.664 1702.836" enable-background="new 0 0 1640.664 1702.836" xml:space="preserve">
<g>
	<path d="M1591.124,758.754v-66.72c-4.601-7.382-7.242-67.578-56.34-123.286c-70.697-79.152-168.043-67.393-231.464,40.564
		c-20.44,36.289-20.129,38.185-22.558,39.166c0,0-44.388-38.388-91.292-55.523c-84.155-30.393-109.034-18.938-159.307,2.708
		c-133.692,53.327-103.263,59.552-232.07,81.75c-8.531,1.068-10.341,2.619-12.831,0.925c-0.48-3.003,22.108-65.994-31.947-121.508
		c-18.088-19.534-40.804-35.869-52.712-61.355c-2.609-5.023,2.838-4.839,9.83-7.708c68.032-25.968,90.582-100.214,47.09-121.168
		c-5.673-2.767-12.163-2.415-29.67-2.384c-8.83-0.054-13.742,3.513-20.786,12.317c-0.642,0.668-1.228,1.737-2.313,1.444
		c-5.136-12.306,7.853-75.449,9.46-88.698c0.576-4.357,0.298-8.777,0.869-13.134c2.303-24.24,14.568-31.369,22.671-80.902
		c0.615-4.112,1.471-14.547-0.144-18.273c-8.191-22.915-32.051,32.384,49.927-115.054c4.689-7.773-4.253-13.762-9.501-8.525
		c-0.733,0.685-95.986,101.171-111.662,118.548c-0.992,1.238-2.59,1.47-4.07,1.547c-39.635-30.328-81.975-47.826-130.937-37.8
		c-52.04,12.016-66.367,49.455-69.294,51.484c-1.598,0.55-2.508-1.285-3.201-2.39c-18.744-35.877-44.568-62.398-50.143-67.007
		c-8.048-6.484-16.103-5.453-21.973,4.738c-3.57,6.354-10.496,21.704-16.531,41.001c-2.256,10.691-5.597,2.837-45.312,11.813
		c-66.246,17.362-116.376,69.804-142.252,130.603c-34.638,80.662-22.562,88.245-38.334,299.982
		c-2.397,17.237-4.252,27.668-12.127,33.879c-12.192,9.394-40.977,6.06-59.957-4.635c-12.121-6.951-25.017-32.729,8.35-48.467
		c20.623-10.122,35.997,22.506,19.296,29.007c-10.23,4.21-17.302-2.108-16.002-6.053c1.958-2.503,5.128-3.546,7.626-5.391
		c3.39-2.08,3.018-8.618-2.724-9.738c-19.336-3.155-25.103,26.655-2.842,34.069c20.591,6.832,41.888-15.362,29.316-38.488
		c-22.327-40.362-64.754-1.255-65.235,10.174c-0.447,5.586,1.146,11.315-0.488,16.809c0,22.121,13.565,19.376,12.959,30.991
		c-1.171,20.231,4.307,37.626,20.719,50.605c30.436,25.399,64.99-1.216,71.632,25.59c9.708,33.084-42.006,61.7-73.492,102.089
		c-21.925,27.61-12.677,65.544,20.755,82.141c17.157,8.646,87.215,21.594,95.501,55.651c4.634,17.705-8.64,37.188-19.825,51.648
		c-43.361,55.353-54.363-21.561-24.167-28.309c8.365-2.155,13.456,2.687,11.212,10.257c-1.331,4.096-3.844,7.667-6.187,11.238
		c-0.719,1.331-2.364,1.737-3.766,1.449c-0.694-3.063,0.416-6.182-0.129-9.244c-0.848-3.515-5.853-5.046-8.469-2.513
		c-9.603,10.246-3.021,29.613,14.373,23.057c10.031-3.691,18.424-17.074,16.048-32.106c-2.011-11.631-17.711-21.337-32.507-11.531
		c-35.758,24.723-18.729,84.588,19.635,65.928c11.872-5.487,19.324,7.192,48.293,0.884c16.112-3.402,53.771-21.321,60.117-24.562
		c6.078-2.637,10.76-5.596,12.189,1.172c2.456,16.341-0.666,38.315,18.067,52.419c11.486,9.022,37.136,17.055,62.424,13.725
		c46.27-7.081,40.37-51.042,18.365-70.363c-11.377-10.01-32.63-14.818-45.333-2.693c-20.654,19.195-1.937,52.869,22.471,47.229
		c14.957-2.751,20.974-18.999,11.721-28.252c-8.652-8.85-15.103-0.814-12.816,3.556c1.088,2.548,8.788,7.571,1.727,11.85
		c-6.441,3.682-11.75,0.549-16.747-5.051c-7.078-7.912-1.799-19.744,5.195-22.944c22.477-11.343,54.75,31.379,29.938,49.49
		c-6.865,5.144-16.768,6.054-35.456,5.015c-4.893-0.323-5.595,1.562-11.002-6.357c-8.213-12.279-12.067-32.952-7.389-48.827
		c5.382-19.328,28.303-28.761,46.725-21.351c3.931,1.423,7.107,4.219,10.709,6.264c19.234,11.535,6.325,1.246,36.32,42.286
		c9.68,14.273,5.445-1.362-25.344,93.045c-2.698,8.976-16.755,0.783-38.843,16.654c-20.459,14.664-29.609,37.912-26.711,60.209
		c2.823,25.574,19.673,43.245,25.148,50.025c11.4,13.984,27.374,264.18,28.149,275.794c1.93,27.148,1.469,30.875,7.641,32.656
		c63.687,19.481,122.079-3.128,158.578-42.943c4.152-4.301,3.414-4.359-15.066-54.377c-30.474-79.913-75.964-177.706-56.813-253.909
		c8.571-35.605,27.467-54.105,48.108-77.763c4.099-4.297,3.44-3.361,11.536-0.427c58.392,22.676,52.942,22.292,90.732,27.99
		c6.718,1.102,8.731,0.411,9.393,6.978c20.579,188.374,6.304,353.636,3.124,414.244c-1.053,9.749-2.063,17.439,4.579,23.072
		c62.251,51.291,121.396,39.51,168.731-16.742c1.875-2.204,1.922-5.236,1.665-7.955c-22.803-171.379-23.497-157.753-39.336-332.951
		c-0.34-3.469-7.934-89.609-6.408-92.695c1.087-2.186,0.03-1.186,43.334-14.167c40.953-11.338,89.683-38.042,126.106-59.973
		c24.463-15.395,27.572-22.435,32.343-20.313c1.002,0.536,77.291,66.266,106.487,101.097c37.216,43.478,34.824,80.902,0.401,148.912
		c-89.979,173.531-97.195,166.486-85.435,174.548c22.161,15.132,53.882,39.019,106.611,27.887
		c30.662-5.799,54.804-26.458,63.863-29.917c-2.025,8.839-42.283,71.551-40.713,79.427c1.734,4.699,76.626,75.773,177.914-1.459
		c10.806-8.808,6.494-4.457,10.513-16.68c32.383-133.753,51.306-216.294,56.479-235.97c5.951-23.495,0.354-25.342-40.518-135.901
		c-14.324-38.33-40.431-97.57-26.233-135.443c0.303,0.036,0.904,0.103,1.202,0.139c2.147,4.271,0.58,26.837,20.97,46.926
		c18.732,18.635,28.483,13.373,44.295,34.819c21.885,30.333,25.683,50.926,54.798,60.24c46.202,13.882,82.223-10.417,97.223-17.029
		c7.102-3.063,15.128-4.548,21.083-9.799c10.894-9.253,5.888-0.542,25.2-4.003c28.543-6.414,19.64-36.206,12.091-47.09
		c-22.334-32.354-66.581-7.838-44.192,18.499c4.991,5.937,19.872,16.203,28.956,6.881c7.171-7.89,4.978-14.548-2.811-21.731
		c-4.74-4.583-9.963,1.386-9.275,5.606c0.354,2.538,2.754,4.168,3.211,6.675c-5.702,1.109-12.656-5.41-13.987-10.205
		c-3.305-10.1,25.325-18.956,33.494,14.717c4.76,28.403-53.513,15.982-52.645-18.91c0.882-15.134,14.364-35.893,34.126-33.668
		c24.759,3.103,23.959,25.639,38.015,24.059v-21.017c-5.448-5.52-13.078-29.904-46.998-44.665c-8.462-3.485-0.43-4.516-9.522-40.785
		c0.313-0.766,0.113-1.639-0.616-2.024c-0.509-1.552-0.997-3.099-1.465-4.645c0.247-1.038-0.113-2.086-1.018-2.636
		c-5.096-13.842-9.195-19.248-12.327-26.145c0.257-0.92-0.128-1.891-1.048-2.179c-3.26-8.077-4.496-14.532-4.496-14.532
		c-0.051-0.319-0.154-0.951-0.205-1.264c0.37-0.75,0.262-1.644-0.385-2.163c-0.976-8.77-0.682-15.086,0.493-22.492
		c0.653-0.524,0.771-1.398,0.447-2.122c0,0,13.233-53.299,13.401-53.986c0.925-0.76,1.182-1.963,0.925-3.093
		c3.879-19.549,41.199-44.177,57.141-88.852c0.611-0.396,0.786-0.93,0.519-1.608c0.324-1.151,0.673-2.297,1.064-3.422
		C1589.39,764.674,1587.177,761.889,1591.124,758.754z M1361.957,791.482c-0.108,0.087-0.319,0.262-0.427,0.349
		c-2.398-8.472-3.02-27.447-24.681-72.459c-0.827-1.762-1.906-3.448-2.22-5.396C1367.817,731.144,1374.2,756.514,1361.957,791.482z
		 M1480.104,1026.486c-10.809-0.418-17.49-8.639-17.79-15.067c-0.873-14.398-5.643-25.686-0.673-26.972
		c1.747,0.396,3.597,1.341,4.337,3.088C1477.422,1011.04,1483.124,1022.257,1480.104,1026.486z"/>
	
		<linearGradient id="SVGID_1_" gradientUnits="userSpaceOnUse" x1="223.8212" y1="1123.2725" x2="488.7109" y2="1123.2725" gradientTransform="matrix(1 0 0 -1 0 1702)">
		<stop  offset="0" style="stop-color:#310908"/>
		<stop  offset="0.0782" style="stop-color:#671E11"/>
		<stop  offset="0.1514" style="stop-color:#C95A10"/>
		<stop  offset="0.2113" style="stop-color:#FDC339"/>
		<stop  offset="0.2662" style="stop-color:#A0796A"/>
		<stop  offset="0.3378" style="stop-color:#C1AA94"/>
		<stop  offset="0.4193" style="stop-color:#496589"/>
		<stop  offset="0.5008" style="stop-color:#4A5877"/>
		<stop  offset="0.5724" style="stop-color:#5F99C9"/>
		<stop  offset="0.604" style="stop-color:#55BCE8"/>
		<stop  offset="0.6789" style="stop-color:#6199C7"/>
		<stop  offset="0.7454" style="stop-color:#FAD88A"/>
		<stop  offset="0.8087" style="stop-color:#FEC63A"/>
		<stop  offset="0.8569" style="stop-color:#E78822"/>
		<stop  offset="0.9334" style="stop-color:#953A11"/>
		<stop  offset="1" style="stop-color:#3F0D05"/>
	</linearGradient>
	<path fill="url(#SVGID_1_)" d="M286.677,499.747c-1.631,25.333,2.499,35.935,3.135,40.872c0.248,0.453,3.283,10.094,3.407,10.575
		c0.001,0.001,5.03,11.566,5.031,11.567c0.001,0.001,8.222,14.064,8.222,14.064s14.464,18.128,14.465,18.129
		c1,0.955,18.968,19.885,19.922,21.757c3.641,2.867,14.019,18.276,13.7,20.339c1.325,1.151,10.005,18.737,7.667,45.348
		c-1.041,11.682-6.641,34.697-7.641,35.893c0.569,1-11.961,47.495-12.698,49.202c0.152,1-7.707,26.662-0.349,49.002
		c0.149,0.642,0.473,1.321,0.293,2.009c0.001,0.002,6.495,15.482,6.495,15.483c0.56,0.726,5.906,9.487,6.1,10.329
		c0.664,0.625,4.932,5.813,5.123,6.701c0.549,0.462,6.507,6.454,6.721,7.148c3.129,2.255,9.533,8.525,18.823,12.893
		c0.519,0.344,1.331,0.437,1.588,1.094c2.78,0.822,5.416,2.091,8.129,3.129c1.001,0.205,11.858,2.951,14.332,5.678
		c-1.657,3.383-2.752,3.789-14.876,6.449c-5.278,1.468-15.461,3.908-20.899,3.941c-1.001,0.516-16.917,0.982-21.952-0.92
		c-6.543,0.398-24.77-8.888-28.016-13.139c-2.587-1.339-7.286-6.235-7.508-6.958c-1.141-0.889-2.502-1.85-2.996-3.232
		c-1.757-1.624-3.458-3.52-4.404-5.714c-1.265-1.009-4.778-6.156-4.794-7.158c-1.11-1.331-2.364-2.806-2.641-4.543
		c-0.814-0.848-4.159-6.752-4.049-7.651c-0.935-1.336-1.68-2.8-2.22-4.332l0.118-0.257c-1.975-2.651-7.021-16.798-6.824-17.528
		c-1.981-3.221-7.348-24.327-7.05-25.195c-1.749-3.686-8.653-41.432-8.078-43.334l-0.344-0.154
		c-2.658-21.481-1.078-6.771-6.202-59.171c-0.658-0.771-0.745-1.906-1.166-2.811c-0.725-2.276-2.24-4.157-3.361-6.233
		c-6.078-6.344-9.285-9.301-9.285-9.301l0.005-0.339c-1.264-0.365-2.359-1.336-3.073-2.415c-2.41-1.721-4.609-3.731-6.783-5.724
		c-0.94-0.437-1.809-1.023-2.508-1.783l0.01-0.339c-1.228-0.355-2.353-1.115-3.068-2.174c-6.71-3.513-24.217-24.823-3.679-48.894
		c1.027-2.27,5.796-9.235,6.742-10.236c0.356-0.787,11.771-17.163,11.916-17.291l-0.149-0.288c3.238-6.41,5.673-11.701,5.673-11.701
		c0.992-3.89,2.482-7.662,3.124-11.639c0.457-2.153,0.303-4.435,1.177-6.485c-0.139-3.839-0.113-7.693-0.005-11.526
		c0,0-0.746-5.892-4.445-19.676c-1.86-5.853-3.438-11.865-4.44-17.924c-1.309-1.178-7.811-37.002-8.443-40.996
		c-2.428-23.049,2.072-45.297,3.787-47.506c-0.014-5.848,11.822-32.744,24.187-45.759c4.708-6.15,15.29-16.778,17.631-18.057
		c0.287-1.025,7.668-7.092,8.946-7.574l0.103-0.391c0.754-0.732,7.796-5.947,10.539-7.389l0.077-0.231
		c1.675-1.256,12.559-8.718,15.632-9.892c0.797-1.223,2.354-1.788,3.659-2.364c0.369-0.778,26.675-15.789,27.42-16.099
		c1.876-1.362,3.618-2.95,5.622-4.111c4.744-4.946,13.573-15.621,24.008-20.868c1.105-1.198,10.277-5.836,11.284-6.156
		c1.115-0.725,2.348-1.274,3.664-1.516l-0.041-0.308c8.933-4.01,10.248-4.398,12.137-4.65l0.211-0.355
		c2.153-0.776,4.352-1.629,6.665-1.732l0.026-0.329c16.634-3.644,21.431-2.388,27.995-3.35l0.057,0.442
		c1.675,0.031,3.674-0.339,5.133,0.606c4.882,0.23,13.694,1.712,14.481,2.004c2.057,0.019,8.136,1.049,10.354,1.552
		c0.647-0.036,1.305,0.067,1.901,0.355c12.799-0.391,9.135,40.319,2.842,51.227c0,1.636-3.336,8.648-4.614,10.324
		c-0.478,2.143-1.891,3.993-3.083,5.807c-0.431,1.46-4.914,7.998-6.094,9.296c-0.69,1.862-12.636,15.867-15.385,17.841v0.308
		c-1.269,1.382-2.574,2.79-4.198,3.772c-0.601,1.577-15.496,14.121-17.744,15.226c-0.992,1.268-6.626,5.337-8.191,5.699
		c-0.781,1.3-2.436,1.901-3.767,2.554c-0.945,0.971-2.204,1.583-3.469,2.03c-0.889,0.802-1.978,1.346-3.099,1.737
		c-0.438,0.51-4.43,2.841-6.192,3.417c-1.249,0.94-2.646,1.691-4.142,2.148c-1.389,1.2-39.704,19.897-41.808,20.637
		c-0.446,0.507-15.106,7.999-15.904,8.283c0,0-20.676,13.534-20.678,13.535c-0.969,0.989-7.14,5.797-7.919,6.315
		c-15.541,13.555-17.003,18.285-20.061,21.305c-0.457,1.459-1.459,2.698-2.359,3.921c-1.47,2.739-2.759,5.575-4.188,8.335
		c-0.747,3.707-1.82,3.148-3.242,14.84l-0.462,0.308L286.677,499.747z"/>
	
		<linearGradient id="SVGID_2_" gradientUnits="userSpaceOnUse" x1="72.6354" y1="1076.9724" x2="382.1914" y2="1076.9724" gradientTransform="matrix(1 0 0 -1 0 1702)">
		<stop  offset="0" style="stop-color:#310908"/>
		<stop  offset="0.0782" style="stop-color:#671E11"/>
		<stop  offset="0.1514" style="stop-color:#C95A10"/>
		<stop  offset="0.2113" style="stop-color:#FDC339"/>
		<stop  offset="0.2662" style="stop-color:#A0796A"/>
		<stop  offset="0.3378" style="stop-color:#C1AA94"/>
		<stop  offset="0.4193" style="stop-color:#496589"/>
		<stop  offset="0.5008" style="stop-color:#4A5877"/>
		<stop  offset="0.5724" style="stop-color:#5F99C9"/>
		<stop  offset="0.604" style="stop-color:#55BCE8"/>
		<stop  offset="0.6789" style="stop-color:#6199C7"/>
		<stop  offset="0.7454" style="stop-color:#FAD88A"/>
		<stop  offset="0.8087" style="stop-color:#FEC63A"/>
		<stop  offset="0.8569" style="stop-color:#E78822"/>
		<stop  offset="0.9334" style="stop-color:#953A11"/>
		<stop  offset="1" style="stop-color:#3F0D05"/>
	</linearGradient>
	<path fill="url(#SVGID_2_)" d="M382.024,989.883c-8.483,0.814-25.466-12.768-50.908,4.291
		c-34.001,28.897-9.858,64.796-12.379,74.16c-5.511,2.131-15.144-6.403-17.774-11.572c-16.85-26.09,8.028-108.565,12.523-127.124
		c2.733-12.427,3.225-11.623,1.891-13.463c-1.295,1.218-2.523,2.518-3.654,3.895c-8.198,20.643-22.543,37.498-24.64,82.089
		c-0.697,7.641-4.233,2.368-15.945,6.783c-15.883,8.089-68.694,35.65-89.602,25.133c-9.609-5.434,56.671-51.04,12.245-96.041
		c-22.232-19.833-67.839-31.303-85.661-39.064c-28.747-12.516-34.072-40.953-21.675-61.561c6.46-11.555,40.01-42.183,59.834-63.6
		c16.159-19.595,26.756-31.305,16.469-58.806c-16.953-27.541-40.005-3.657-69.433-22.677c-11.949-7.421-19.766-19.69-20.678-36.546
		c-0.053-5.961,1.137-6.933,18.561-2.168c159.116,39.779-51.943-390.966,253.066-470.589c16.135-0.839,21.52-4.163,20.96,2.071
		c-2.691,15.51-0.933,8.663-21.752,14.501c-57.114,19.686-61.05,24.485-99.216,60.79c-8.972,10.28-27.227,29.902-29.162,43.38
		c14.155-11.047,45.401-75.432,134.529-92.973c18.026-2.784,5.776-6.614,0.164,85.512c-0.457,5.823-2.977,6.363-10.015,10.318
		c-10.964,7.226-69.329,36.488-93.569,84.715c-8.268,18.95-6.704,18.186-9.131,24.079c-0.349,3.443-1.603,6.721-2.019,10.164
		c-11.48,62.322,28.331,109.543,11.634,144.21c-18.226,38.334-55.989,64.706-16.315,99.227
		c33.318,28.594,22.453,7.923,32.317,84.638c4.523,19.004,9.272,92.964,53.991,132.854c31.806,24.232,20.386-8.061,47.398,61.92
		C381.228,988.18,382.843,982.954,382.024,989.883z"/>
	<path d="M387.194,377.084c38.665-19.391,61.2-63.05,58.441-76.981c-0.617-0.015-1.228,0.026-1.824,0.128
		c-2.404,3.226-7.75,13.708-9.542,17.651c-22.647,50.207-96.177,54.352-142.144,92.855c-14.514,14.863-14.936,32.072-12.831,34.675
		c2.837-1.789,4.265-11.149,6.264-14.799c1.151-2.472,2.718-4.738,4.568-6.742C306.552,403.696,360.292,391.044,387.194,377.084z"/>
	<path d="M206.119,851.305c-7.689,19.585,12.825,33.715,26.772,22.882c4.568-5.065,6.095-9.183-0.041-12.04
		c-1.305,0.026-2.847-0.175-3.823,0.91c-1.489,1.419-5.012,8.131-11.87,2.821c-5.522-4.554-2.353-14.497,6.747-16.808
		c13.827-4.795,27.048,18.445,22.456,27.677c-9.385,19.317-57.216,15.751-56.715-16.957c-1.404-51.402,52.484-60.953,63.59-92.665
		c7.578-23.647-27.207-55.592-49.14-90.645c-10.41-16.054-12.571-35.926-12.41-54.603c-0.322-24.702,7.967-86.767,9.969-98.189
		c8.738-48.695-1.178-113.68,9.47-145.51c-10.843,5.251-11.525,45.881-17.358,116.307c-3.245,38.007-35.962,125.042-36.099,151.039
		c-0.692,39.12,26.363,80.484,29.737,86.688c9.511,15.357,1.004,27.254-8.674,40.873c-11.901,19.34-62.143,85.558-38.699,118.548
		c22.173,27.776,94.255,8.36,108.656-0.457C278.544,861.879,225.981,815.438,206.119,851.305z"/>
	
		<linearGradient id="SVGID_3_" gradientUnits="userSpaceOnUse" x1="144.9547" y1="958.2325" x2="243.7469" y2="958.2325" gradientTransform="matrix(1 0 0 -1 0 1702)">
		<stop  offset="0" style="stop-color:#E5E2DF"/>
		<stop  offset="0" style="stop-color:#EDE3D0"/>
		<stop  offset="0" style="stop-color:#FFE6B1"/>
		<stop  offset="0.0584" style="stop-color:#FFF2CD"/>
		<stop  offset="0.1067" style="stop-color:#FFFDE7"/>
		<stop  offset="0.1215" style="stop-color:#FDF8DD"/>
		<stop  offset="0.1464" style="stop-color:#F6EBC3"/>
		<stop  offset="0.1784" style="stop-color:#ECD598"/>
		<stop  offset="0.2158" style="stop-color:#DDB75E"/>
		<stop  offset="0.2472" style="stop-color:#D09B27"/>
		<stop  offset="0.2977" style="stop-color:#D19E29"/>
		<stop  offset="0.328" style="stop-color:#D5A62F"/>
		<stop  offset="0.3531" style="stop-color:#DBB438"/>
		<stop  offset="0.3752" style="stop-color:#E5C846"/>
		<stop  offset="0.3953" style="stop-color:#F0E258"/>
		<stop  offset="0.3989" style="stop-color:#F3E85C"/>
		<stop  offset="0.4355" style="stop-color:#E9DF5D"/>
		<stop  offset="0.4971" style="stop-color:#CFC65E"/>
		<stop  offset="0.5757" style="stop-color:#A59E60"/>
		<stop  offset="0.6461" style="stop-color:#797563"/>
		<stop  offset="0.6958" style="stop-color:#6F7E64"/>
		<stop  offset="0.7416" style="stop-color:#628A66"/>
		<stop  offset="0.7446" style="stop-color:#5D8767"/>
		<stop  offset="0.7682" style="stop-color:#3C766D"/>
		<stop  offset="0.7925" style="stop-color:#216872"/>
		<stop  offset="0.8172" style="stop-color:#0F5E75"/>
		<stop  offset="0.8429" style="stop-color:#045877"/>
		<stop  offset="0.8708" style="stop-color:#005678"/>
		<stop  offset="0.8714" style="stop-color:#02577A"/>
		<stop  offset="0.8839" style="stop-color:#1F719B"/>
		<stop  offset="0.8967" style="stop-color:#3685B6"/>
		<stop  offset="0.9099" style="stop-color:#4794C8"/>
		<stop  offset="0.9234" style="stop-color:#519CD3"/>
		<stop  offset="0.9382" style="stop-color:#549FD7"/>
		<stop  offset="0.9413" style="stop-color:#5FA5DA"/>
		<stop  offset="0.9523" style="stop-color:#80B8E3"/>
		<stop  offset="0.9636" style="stop-color:#9BC6E9"/>
		<stop  offset="0.9751" style="stop-color:#ADD1EE"/>
		<stop  offset="0.987" style="stop-color:#B8D7F1"/>
		<stop  offset="1" style="stop-color:#BCD9F2"/>
	</linearGradient>
	<path fill="url(#SVGID_3_)" d="M195.554,894.136c-1.622,1.144-24.613,0.686-25.616,0.637l-0.154-0.375
		c-4.156,0.497-10.908-0.778-15.282-2.919l-0.144-0.385c-0.576-0.149-1.5-0.216-1.557-0.976c-0.812-0.298-1.629-0.755-2.019-1.557
		c-6.847-3.753-7.178-27.233-3.489-33.725c-0.578-1.663,3.981-14.222,4.964-15.683c0.077-0.976,0.493-1.876,1.166-2.564
		c0.195-1.521,0.971-2.883,1.793-4.137c0.514-1.624,1.208-3.217,2.235-4.578c0.802-2.178,7.039-13.701,8.89-15.704
		c-0.237-0.863,3.915-6.891,4.604-7.584c0.498-1.886,1.881-3.597,3.16-5.082c0.319-1.572,1.572-2.862,2.554-4.101
		c0.057-1.033,1.038-1.773,1.68-2.497c0.082-1.238,1.223-2.199,1.994-3.099c0.2-1.269,1.254-2.282,2.096-3.196l-0.046-0.252
		c1.213-1.973,2.353-4.039,3.931-5.74c0.863-1.978,2.081-3.875,3.628-5.385c0.401-1.804,1.814-3.386,2.96-4.846
		c0.637-1.506,1.495-2.934,2.621-4.121c0.591-1.562,1.521-2.991,2.621-4.239c0.411-1.588,1.357-2.965,1.968-4.476
		c0.874-1.855,1.151-3.926,2.05-5.766c1.364-10.585-0.735-13.401-2.631-18.838c-1.466-1.915-6.02-10.434-6.49-11.87
		c-0.859-1.002-5.912-8.976-6.732-11.66c-1.142-1.198-3.929-6.8-3.977-7.77c-1.147-1.608-4.125-8.292-4.018-9.316
		c-0.884-1.727-1.901-3.571-2.066-5.509c-1.043-1.886-1.86-4.029-2.045-6.161c-2.163-4.237-11.485-40.446-3.165-53.904
		c-0.278-1.127,1.208-7.725,1.927-8.766c-0.067-2.012,4.746-21.923,5.082-22.923c0.175-0.144,0.524-0.432,0.704-0.576
		c0.596-1.167,2.179-2.713,3.371-1.295c0.922,28.634-1.698,54.038,4.419,71.016c0.242,0.838,0.714,1.685,0.586,2.59
		c0.58,0.724,3.486,6.685,3.489,7.358c1.064,1.357,2.271,2.785,2.682,4.496c1.439,1.475,2.826,3.309,3.52,5.211
		c0.997,1.074,2.148,2.24,2.497,3.7c1.264,1.29,2.451,2.749,3.165,4.424c1.1,1.146,2.076,2.446,2.759,3.895
		c0.884,0.868,1.634,1.891,2.112,3.047c1.028,1.012,1.973,2.189,2.446,3.571c0.683,0.565,1.341,1.243,1.608,2.127
		c0.755,0.848,1.829,1.742,1.922,2.939c0.606,0.468,1.238,0.987,1.567,1.716l-0.031,0.349c0.632,0.596,1.423,1.213,1.572,2.138
		c0.776,0.647,1.603,1.449,1.696,2.528c0.987,0.56,1.706,1.547,1.999,2.646c0.93,0.817,1.819,1.799,2.133,3.037
		c0.711,0.666,4.916,6.117,4.825,7.071c1.639,1.788,3.376,3.833,4.111,6.136c1.059,1.161,2.384,2.467,2.616,4.065
		c0.714,0.699,1.593,1.495,1.593,2.59c0.827,0.92,1.824,1.912,1.968,3.212c0.812,1.074,1.922,2.184,2.055,3.582
		c6.696,9.011,4.727,19.549,0.01,24.367l0.005,0.319c-0.462,0.781-1.208,1.346-1.922,1.901c-0.288,0.961-1.316,1.459-2.055,2.05
		c-0.278,0.992-1.331,1.506-2.158,1.999v0.324c-0.56,0.909-1.434,1.608-2.4,2.066l-0.041,0.396
		c-1.269,1.434-2.744,2.693-4.347,3.746l-0.031,0.288c-1.29,1.213-2.687,2.348-4.234,3.237c-0.442,0.791-1.279,1.218-2.086,1.562
		l-0.01,0.437c-0.54,0.278-1.094,0.519-1.67,0.714l0.041,0.349c-0.545,0.545-1.213,1.018-2.014,1.069l-0.031,0.385
		c-0.526,0.446-2.329,1.778-3.068,2.112c-0.37,0.576-0.992,0.899-1.583,1.218c-0.221,0.714-0.997,0.992-1.593,1.341
		c-0.606,0.889-1.464,1.588-2.41,2.107c-0.56,0.797-1.295,1.47-2.122,1.989c-1.254,1.387-2.533,2.79-4.085,3.854
		c-0.313,1.305-1.639,2.194-2.631,3.047c-0.488,1.31-1.665,2.256-2.682,3.17l0.021,0.324c-0.817,1.408-1.891,2.657-3.058,3.792
		c-0.411,1.562-1.583,2.852-2.631,4.06c-0.54,1.984-1.999,3.705-2.893,5.591c-1.958,3.638-3.289,7.564-5.056,11.284
		c-0.611,2.246-1.1,4.589-2.133,6.69c-0.016,0.22-1.788,10.607-1.881,10.807c-0.015,3.032,0.077,6.074-0.026,9.106l0.375,0.015
		c0.147,6.929,2.606,10.148,4.003,14.738c0.001,0.001,6.032,8.596,6.033,8.597C195.133,891.116,196.317,891.969,195.554,894.136z"/>
	<path d="M284.488,586.934c-0.041-6.711-1.851-20.227-5.01-26.171c-0.545-0.391-1.094-0.755-1.665-1.084
		c-0.772,16.75,2.561,25.676-3.638,38.416c-3.537,8.93-14.964,16.745-0.73,39.547c41.946,58.231,26.816,49.936,26.674,116.297
		c-0.655,17.817,6.628,38.084,10.519,41.345c0.534-0.082,1.069-0.18,1.603-0.293c-0.206-3.289-0.822-6.531-1.038-9.815
		c-10.414-55.093,8.798-75.86,4.018-102.433c-5.108-19.679-22.179-36.586-29.737-47.835
		C267.068,613.018,282.679,611.063,284.488,586.934z"/>
	<path d="M1487.796,608.753c-1.012-0.098-2.009-0.185-2.991-0.272c-0.75,0.144-1.187,0.704-1.115,1.459
		c3.899,3.608,13.035,5.997,19.573,12.677c12.135,10.873,28.725,40.487,18.17,80.676c-25.144,95.736-26.467,100.236-31.458,121.677
		c-2.274,14.192-7.027,60.882,2.831,69.33c-2.665-55.55,7.831-74.311,19.516-111.158c8.119-25.601,14.742-55.399,17.122-64.284
		c3.595-17.151,9.75-34.555,2.431-59.418C1520.67,621.826,1502.107,616.666,1487.796,608.753z"/>
	
		<linearGradient id="SVGID_4_" gradientUnits="userSpaceOnUse" x1="711.0779" y1="1309.698" x2="748.2092" y2="1309.698" gradientTransform="matrix(1 0 0 -1 0 1702)">
		<stop  offset="0" style="stop-color:#310908"/>
		<stop  offset="0.0782" style="stop-color:#671E11"/>
		<stop  offset="0.1514" style="stop-color:#C95A10"/>
		<stop  offset="0.2113" style="stop-color:#FDC339"/>
		<stop  offset="0.2662" style="stop-color:#A0796A"/>
		<stop  offset="0.3378" style="stop-color:#C1AA94"/>
		<stop  offset="0.4193" style="stop-color:#496589"/>
		<stop  offset="0.5008" style="stop-color:#4A5877"/>
		<stop  offset="0.5724" style="stop-color:#5F99C9"/>
		<stop  offset="0.604" style="stop-color:#55BCE8"/>
		<stop  offset="0.6789" style="stop-color:#6199C7"/>
		<stop  offset="0.7454" style="stop-color:#FAD88A"/>
		<stop  offset="0.8087" style="stop-color:#FEC63A"/>
		<stop  offset="0.8569" style="stop-color:#E78822"/>
		<stop  offset="0.9334" style="stop-color:#953A11"/>
		<stop  offset="1" style="stop-color:#3F0D05"/>
	</linearGradient>
	<path fill="url(#SVGID_4_)" d="M726.989,372.33c11.771-2.771,21.544,5.761,21.212,15.724c-0.288,6.138-3.645,16.825-4.907,18.53
		c-5.346,8.038-20.546,9.138-17.199-1.793c1.11-2.595,4.424-2.626,6.228-4.517c2.826-2.613,5.737-12.128,3.176-14.717
		c-2.343-2.456-6.603-2.718-9.152-0.432c-0.058,2.178,6.964,7.776,1.917,12.605c-4.027,3.804-11.606,3.108-14.234,1.069
		C707.529,394.125,711.729,375.545,726.989,372.33z"/>
	
		<linearGradient id="SVGID_5_" gradientUnits="userSpaceOnUse" x1="494.9346" y1="1344.3257" x2="769.1956" y2="1344.3257" gradientTransform="matrix(1 0 0 -1 0 1702)">
		<stop  offset="0" style="stop-color:#310908"/>
		<stop  offset="0.0782" style="stop-color:#671E11"/>
		<stop  offset="0.1514" style="stop-color:#C95A10"/>
		<stop  offset="0.2113" style="stop-color:#FDC339"/>
		<stop  offset="0.2662" style="stop-color:#A0796A"/>
		<stop  offset="0.3378" style="stop-color:#C1AA94"/>
		<stop  offset="0.4193" style="stop-color:#496589"/>
		<stop  offset="0.5008" style="stop-color:#4A5877"/>
		<stop  offset="0.5724" style="stop-color:#5F99C9"/>
		<stop  offset="0.604" style="stop-color:#55BCE8"/>
		<stop  offset="0.6789" style="stop-color:#6199C7"/>
		<stop  offset="0.7454" style="stop-color:#FAD88A"/>
		<stop  offset="0.8087" style="stop-color:#FEC63A"/>
		<stop  offset="0.8569" style="stop-color:#E78822"/>
		<stop  offset="0.9334" style="stop-color:#953A11"/>
		<stop  offset="1" style="stop-color:#3F0D05"/>
	</linearGradient>
	<path fill="url(#SVGID_5_)" d="M693.501,384.386c3.881,23.313,6.193,18.981,8.607,24.686c2.405,2.04,4.455,4.496,6.732,6.69
		c0.827,0.313,1.629,0.745,2.312,1.336l0.051,0.319c2.862,1.387,5.961,2.03,9.008,2.862c7.767-0.359,3.813,0.887,14.696-1.526
		c0.483-0.324,1.012-0.468,1.588-0.427c9.478-5.419,6.047-4.346,10.878-8.391c2.293-3.987,9.597-12.767,6.665-24.434
		c-0.575-2.189-1.326-4.722,0.057-6.778c1.12-0.231,2.276-0.092,3.402,0.108l-0.175,0.324c8.223,6.858,12.081,12.796,11.865,23.304
		c0.161,9.146-4.886,23.676-7.713,27.995c-0.008,1.303-6.868,13.283-11.295,17.333c-0.028,0.939-4.874,5.597-5.668,6.135
		c-1.326,1.85-3.237,3.371-5.139,4.64l-0.031,0.272c-1.146,1.125-2.441,2.107-3.849,2.867c-2.169,2.19-9.934,7.025-12.014,7.708
		l-0.041,0.283c-2.582,1.683-10.616,5.449-12.554,5.73c-2.052,1.78-16.741,5.858-24.285,6.67
		c-20.615,3.315-51.508-1.999-62.177-7.009c-3.708-0.069-29.515-12.514-31.202-15.519c-1.434-0.457-3.001-1.233-3.828-2.503
		c-2.043-0.913-8.553-5.786-9.327-7.163c-1.727-0.96-5.992-5.192-6.125-6.192c-2.033-1.85-6.485-8.887-6.238-10.133
		c-4.352-4.899-11.738-36.5-11.408-57.84c-1.387-19.622-2.929-26.962-2.929-26.962c-0.37-1-9.787-30.982-17.667-43.832l0.103-0.293
		c-1.578-1.614-2.595-3.674-3.823-5.55c-0.001-0.002-7.07-8.925-7.071-8.926c-1.357-1.095-2.631-2.318-3.659-3.731
		c-1.274-0.894-2.446-1.948-3.463-3.124c-1.31-0.879-2.616-1.84-3.607-3.078c-1.737-0.935-3.427-2.066-4.748-3.541
		c-2.097-1.136-3.993-2.646-5.75-4.244c-7.605-4.485-9.329-7.53-8.587-10.693c3.042-2.225,6.927-0.319,10.226,0.226
		c1.202,0.051,2.42,0.262,3.53,0.75c2.582,0.123,9.181,1.964,10.914,2.847c1.612,0.332,6.576,2.933,7.826,3.972l0.082,0.267
		c18.598,10.849,20.135,49.915,24.475,59.151c2.094,4.887,5.927,8.414,10.267,11.428c1.331,0.416,2.451,1.321,3.602,2.091
		c3.577,0.851,2.585,2.532,19.059,4.517c1.372-0.082,2.739,0.185,4.08,0.473c0.667-0.071,18.004,1.084,20.421,1.516
		c0.082,0.087,0.236,0.262,0.313,0.349c2.287,0.257,4.748,1.13,6.387,2.754c11.769,6.265,8.597,47.918,8.838,50.353
		c2.122,53.079,7.374,52.331,7.939,56.345c4.257,3.597,1.162,2.769,8.617,5.956l0.077,0.226c0,0,5.582,0.432,21.243,0.041
		c0.001,0,13.935-3.006,13.936-3.006c2.194-0.945,4.542-1.465,6.829-2.169c0.884-0.596,1.958-0.817,3.006-0.981
		c1.269-0.848,2.785-1.223,4.265-1.531l0.062-0.272c6.698-3.323,8.674-4.424,8.674-4.424v-0.329c1.86-1.629,3.551-3.422,5.262-5.211
		c-0.019-1.267,7.035-9.132,3.397-19.609c-0.36-1.233-1.393-2.354-1.357-3.638c-0.052-0.05-5.322-6.152-5.354-6.223
		c-2.179-1.865-4.054-4.09-5.956-6.213c-1.146-0.879-2.759-1.485-3.427-2.775c-1.608-0.211-3.104-0.884-4.594-1.47
		c-9.261-0.487-4.93,0.321-10.359,0.868c-1.12,0.504-2.292,0.899-3.474,1.213c-32.426,19.798-0.778,49.09,17.744,31.227
		c0.236-3.099,1.413-6.099,1.069-9.239c-0.072-1.259-0.899-2.312-1.064-3.54c-1.315-1.423-2.554-2.97-4.363-3.782
		c-7.267,1.142-2.012,6.125-3.946,10.118c-1.543,4.563-10.398,3.272-12.759-1.064c-5.931-9.426,12.556-19.276,21.829-13.021
		c1.321,0.596,2.79,1.259,3.556,2.569c8.34,5.693,5.135,23.688-10.488,27.877c-4.822,1.457-13.965,2.543-19.871,1.059
		c-10.146-2.018-11.182-15.364-11.182-25.873c-0.357-7.243,2.724-11.644,9.984-29.49c0.591-1.464,0.992-3.057,2.04-4.286
		c-0.188-0.669,9.809-24.488,10.164-25.082c0.051-2.296,5.552-14.092,2.564-23.972c-0.349-1.845-1.28-3.566-1.377-5.442
		c-1.336-2.158-2.641-4.393-3.638-6.711c-17.611-21.226-32.065-14.85-27.06-23.232c1.916-3.208,15.469-27.924,17.204-29.989
		c-0.006-1.057,8.469-15.184,9.167-15.986c0.162-1.002,13.929-25.707,15.457-26.71c0.267-1.28,1.752-2.302,3.011-2.456
		c5.483,3.492,12.32,29.945,11.937,45.878C704.459,300.22,689.708,346.037,693.501,384.386z"/>
	
		<linearGradient id="SVGID_6_" gradientUnits="userSpaceOnUse" x1="477.746" y1="1373.4629" x2="669.7217" y2="1373.4629" gradientTransform="matrix(1 0 0 -1 0 1702)">
		<stop  offset="0" style="stop-color:#310908"/>
		<stop  offset="0.0782" style="stop-color:#671E11"/>
		<stop  offset="0.1514" style="stop-color:#C95A10"/>
		<stop  offset="0.2113" style="stop-color:#FDC339"/>
		<stop  offset="0.2662" style="stop-color:#A0796A"/>
		<stop  offset="0.3378" style="stop-color:#C1AA94"/>
		<stop  offset="0.4193" style="stop-color:#496589"/>
		<stop  offset="0.5008" style="stop-color:#4A5877"/>
		<stop  offset="0.5724" style="stop-color:#5F99C9"/>
		<stop  offset="0.604" style="stop-color:#55BCE8"/>
		<stop  offset="0.6789" style="stop-color:#6199C7"/>
		<stop  offset="0.7454" style="stop-color:#FAD88A"/>
		<stop  offset="0.8087" style="stop-color:#FEC63A"/>
		<stop  offset="0.8569" style="stop-color:#E78822"/>
		<stop  offset="0.9334" style="stop-color:#953A11"/>
		<stop  offset="1" style="stop-color:#3F0D05"/>
	</linearGradient>
	<path fill="url(#SVGID_6_)" d="M483.758,240.69c-0.489-1-5.97-12.304-6.012-15.37c3.024-3.96,41.276-18.753,52.198-21.433
		c16.919-4.328,34.2,7.443,39.891,23.874c0,0,7.424,22.992,13.473,40.446c12.113,32.337,6.79,29.492,17.024,40.667
		c11.636,9.525,37.338,7.7,56.561,19.275c38.79,23.033-24.17,74.844-9.388,118.183c0.832,2.369,1.696,4.902,1.048,7.436
		c-12.105,3.071-10.375-16.219-11.88-41.494c-3.25-37.271,5.595-71.752-32.712-75.301c-28.574-2.648-40.609-1.402-44.166-16.212
		c-10.672-41.838-15.256-44.989-19.691-50.713c-17.178-16.958-33.416-15.673-47.193-19.003
		C486.848,249.646,486.826,247.234,483.758,240.69z"/>
	
		<linearGradient id="SVGID_7_" gradientUnits="userSpaceOnUse" x1="594.8035" y1="1426.6263" x2="640.137" y2="1426.6263" gradientTransform="matrix(1 0 0 -1 0 1702)">
		<stop  offset="0" style="stop-color:#BA8B01"/>
		<stop  offset="0.0438" style="stop-color:#CDAA37"/>
		<stop  offset="0.1121" style="stop-color:#E8D886"/>
		<stop  offset="0.1607" style="stop-color:#F8F4B8"/>
		<stop  offset="0.1847" style="stop-color:#FFFFCB"/>
		<stop  offset="0.2986" style="stop-color:#FFFFCB"/>
		<stop  offset="0.3078" style="stop-color:#FDF9C1"/>
		<stop  offset="0.3415" style="stop-color:#F5E6A0"/>
		<stop  offset="0.374" style="stop-color:#F0D989"/>
		<stop  offset="0.4043" style="stop-color:#EDD17B"/>
		<stop  offset="0.4303" style="stop-color:#ECCE76"/>
		<stop  offset="0.4892" style="stop-color:#A26F14"/>
		<stop  offset="0.6051" style="stop-color:#A26F14"/>
		<stop  offset="0.6074" style="stop-color:#A67418"/>
		<stop  offset="0.624" style="stop-color:#C19234"/>
		<stop  offset="0.6402" style="stop-color:#D4A848"/>
		<stop  offset="0.6558" style="stop-color:#E0B654"/>
		<stop  offset="0.6699" style="stop-color:#E4BA58"/>
		<stop  offset="0.6716" style="stop-color:#D9A94D"/>
		<stop  offset="0.6756" style="stop-color:#C38737"/>
		<stop  offset="0.6793" style="stop-color:#B36F27"/>
		<stop  offset="0.6828" style="stop-color:#A9601D"/>
		<stop  offset="0.6857" style="stop-color:#A65B1A"/>
		<stop  offset="0.6954" style="stop-color:#AA6222"/>
		<stop  offset="0.7104" style="stop-color:#B57637"/>
		<stop  offset="0.7287" style="stop-color:#C6965B"/>
		<stop  offset="0.7498" style="stop-color:#DEC38B"/>
		<stop  offset="0.7728" style="stop-color:#FDFCC9"/>
		<stop  offset="0.7741" style="stop-color:#FFFFCD"/>
		<stop  offset="0.7957" style="stop-color:#FFFFCD"/>
		<stop  offset="0.8468" style="stop-color:#E5BD5D"/>
		<stop  offset="0.8861" style="stop-color:#BB913B"/>
		<stop  offset="0.9116" style="stop-color:#BB913B"/>
		<stop  offset="0.9147" style="stop-color:#BE9337"/>
		<stop  offset="0.925" style="stop-color:#C39830"/>
		<stop  offset="0.9509" style="stop-color:#C5992E"/>
		<stop  offset="1" style="stop-color:#7F470A"/>
	</linearGradient>
	<path fill="url(#SVGID_7_)" d="M595.384,270.257c-0.709-1.886-1.002-4.322,0.504-5.904c17.679-19.808,19.714-22.577,22.132-21.377
		c1.356,1.403,1.202,3.53,1.526,5.324c0.335,9.482,3.253,26.278,11.711,36.51c7.035,7.151,8.561,6.331,8.88,8.689
		c-5.99,16.01-5.713,15.138-11.392,13.921c-23.086-6.439-23.045-4.645-26.109-15.955l0.098-0.236
		C599.84,284.414,597.764,277.266,595.384,270.257z"/>
	
		<linearGradient id="SVGID_8_" gradientUnits="userSpaceOnUse" x1="699.3281" y1="1488.0942" x2="727.7228" y2="1488.0942" gradientTransform="matrix(1 0 0 -1 0 1702)">
		<stop  offset="0" style="stop-color:#310908"/>
		<stop  offset="0.0782" style="stop-color:#671E11"/>
		<stop  offset="0.1514" style="stop-color:#C95A10"/>
		<stop  offset="0.2113" style="stop-color:#FDC339"/>
		<stop  offset="0.2662" style="stop-color:#A0796A"/>
		<stop  offset="0.3378" style="stop-color:#C1AA94"/>
		<stop  offset="0.4193" style="stop-color:#496589"/>
		<stop  offset="0.5008" style="stop-color:#4A5877"/>
		<stop  offset="0.5724" style="stop-color:#5F99C9"/>
		<stop  offset="0.604" style="stop-color:#55BCE8"/>
		<stop  offset="0.6789" style="stop-color:#6199C7"/>
		<stop  offset="0.7454" style="stop-color:#FAD88A"/>
		<stop  offset="0.8087" style="stop-color:#FEC63A"/>
		<stop  offset="0.8569" style="stop-color:#E78822"/>
		<stop  offset="0.9334" style="stop-color:#953A11"/>
		<stop  offset="1" style="stop-color:#3F0D05"/>
	</linearGradient>
	<path fill="url(#SVGID_8_)" d="M719.41,222.309c-1.67,6.968-3.32,14.054-6.665,20.436c-0.103,1.259-0.719,2.425-1.269,3.546
		c-2.875-3.176-10.732-23.364-11.839-26.341c-1.002-2.436,0.658-4.81,1.778-6.875c14.567-24.43,17.18-35.563,25.092-30.256
		C728.504,184.245,729.16,183.997,719.41,222.309z"/>
	
		<linearGradient id="SVGID_9_" gradientUnits="userSpaceOnUse" x1="725.3547" y1="1581.9373" x2="750.8644" y2="1581.9373" gradientTransform="matrix(1 0 0 -1 0 1702)">
		<stop  offset="0" style="stop-color:#BA8B01"/>
		<stop  offset="0.0438" style="stop-color:#CDAA37"/>
		<stop  offset="0.1121" style="stop-color:#E8D886"/>
		<stop  offset="0.1607" style="stop-color:#F8F4B8"/>
		<stop  offset="0.1847" style="stop-color:#FFFFCB"/>
		<stop  offset="0.2986" style="stop-color:#FFFFCB"/>
		<stop  offset="0.3078" style="stop-color:#FDF9C1"/>
		<stop  offset="0.3415" style="stop-color:#F5E6A0"/>
		<stop  offset="0.374" style="stop-color:#F0D989"/>
		<stop  offset="0.4043" style="stop-color:#EDD17B"/>
		<stop  offset="0.4303" style="stop-color:#ECCE76"/>
		<stop  offset="0.4892" style="stop-color:#A26F14"/>
		<stop  offset="0.6051" style="stop-color:#A26F14"/>
		<stop  offset="0.6074" style="stop-color:#A67418"/>
		<stop  offset="0.624" style="stop-color:#C19234"/>
		<stop  offset="0.6402" style="stop-color:#D4A848"/>
		<stop  offset="0.6558" style="stop-color:#E0B654"/>
		<stop  offset="0.6699" style="stop-color:#E4BA58"/>
		<stop  offset="0.6716" style="stop-color:#D9A94D"/>
		<stop  offset="0.6756" style="stop-color:#C38737"/>
		<stop  offset="0.6793" style="stop-color:#B36F27"/>
		<stop  offset="0.6828" style="stop-color:#A9601D"/>
		<stop  offset="0.6857" style="stop-color:#A65B1A"/>
		<stop  offset="0.6954" style="stop-color:#AA6222"/>
		<stop  offset="0.7104" style="stop-color:#B57637"/>
		<stop  offset="0.7287" style="stop-color:#C6965B"/>
		<stop  offset="0.7498" style="stop-color:#DEC38B"/>
		<stop  offset="0.7728" style="stop-color:#FDFCC9"/>
		<stop  offset="0.7741" style="stop-color:#FFFFCD"/>
		<stop  offset="0.7957" style="stop-color:#FFFFCD"/>
		<stop  offset="0.8468" style="stop-color:#E5BD5D"/>
		<stop  offset="0.8861" style="stop-color:#BB913B"/>
		<stop  offset="0.9116" style="stop-color:#BB913B"/>
		<stop  offset="0.9147" style="stop-color:#BE9337"/>
		<stop  offset="0.925" style="stop-color:#C39830"/>
		<stop  offset="0.9509" style="stop-color:#C5992E"/>
		<stop  offset="1" style="stop-color:#7F470A"/>
	</linearGradient>
	<path fill="url(#SVGID_9_)" d="M732.873,115.965c17.123-19.6,20.976-15.637,15.945-5.992
		c-11.947,21.709-18.696,39.008-22.954,19.994C725.049,123.756,724.07,126.536,732.873,115.965z"/>
	
		<linearGradient id="SVGID_10_" gradientUnits="userSpaceOnUse" x1="692.8164" y1="1543.3318" x2="726.5688" y2="1543.3318" gradientTransform="matrix(1 0 0 -1 0 1702)">
		<stop  offset="0" style="stop-color:#BA8B01"/>
		<stop  offset="0.0438" style="stop-color:#CDAA37"/>
		<stop  offset="0.1121" style="stop-color:#E8D886"/>
		<stop  offset="0.1607" style="stop-color:#F8F4B8"/>
		<stop  offset="0.1847" style="stop-color:#FFFFCB"/>
		<stop  offset="0.2986" style="stop-color:#FFFFCB"/>
		<stop  offset="0.3078" style="stop-color:#FDF9C1"/>
		<stop  offset="0.3415" style="stop-color:#F5E6A0"/>
		<stop  offset="0.374" style="stop-color:#F0D989"/>
		<stop  offset="0.4043" style="stop-color:#EDD17B"/>
		<stop  offset="0.4303" style="stop-color:#ECCE76"/>
		<stop  offset="0.4892" style="stop-color:#A26F14"/>
		<stop  offset="0.6051" style="stop-color:#A26F14"/>
		<stop  offset="0.6074" style="stop-color:#A67418"/>
		<stop  offset="0.624" style="stop-color:#C19234"/>
		<stop  offset="0.6402" style="stop-color:#D4A848"/>
		<stop  offset="0.6558" style="stop-color:#E0B654"/>
		<stop  offset="0.6699" style="stop-color:#E4BA58"/>
		<stop  offset="0.6716" style="stop-color:#D9A94D"/>
		<stop  offset="0.6756" style="stop-color:#C38737"/>
		<stop  offset="0.6793" style="stop-color:#B36F27"/>
		<stop  offset="0.6828" style="stop-color:#A9601D"/>
		<stop  offset="0.6857" style="stop-color:#A65B1A"/>
		<stop  offset="0.6954" style="stop-color:#AA6222"/>
		<stop  offset="0.7104" style="stop-color:#B57637"/>
		<stop  offset="0.7287" style="stop-color:#C6965B"/>
		<stop  offset="0.7498" style="stop-color:#DEC38B"/>
		<stop  offset="0.7728" style="stop-color:#FDFCC9"/>
		<stop  offset="0.7741" style="stop-color:#FFFFCD"/>
		<stop  offset="0.7957" style="stop-color:#FFFFCD"/>
		<stop  offset="0.8468" style="stop-color:#E5BD5D"/>
		<stop  offset="0.8861" style="stop-color:#BB913B"/>
		<stop  offset="0.9116" style="stop-color:#BB913B"/>
		<stop  offset="0.9147" style="stop-color:#BE9337"/>
		<stop  offset="0.925" style="stop-color:#C39830"/>
		<stop  offset="0.9509" style="stop-color:#C5992E"/>
		<stop  offset="1" style="stop-color:#7F470A"/>
	</linearGradient>
	<path fill="url(#SVGID_10_)" d="M717.637,133.277c1.793-1.973,3.587,0.601,4.378,2.174c6.455,12.12,9.619,3.584-15.745,47.286
		c-2.764,5.25-11.961,0.097-13.191-12.533C692.1,159.893,692.606,159.008,717.637,133.277z"/>
	
		<linearGradient id="SVGID_11_" gradientUnits="userSpaceOnUse" x1="663.7015" y1="1499.4508" x2="696.679" y2="1499.4508" gradientTransform="matrix(1 0 0 -1 0 1702)">
		<stop  offset="0" style="stop-color:#BA8B01"/>
		<stop  offset="0.0438" style="stop-color:#CDAA37"/>
		<stop  offset="0.1121" style="stop-color:#E8D886"/>
		<stop  offset="0.1607" style="stop-color:#F8F4B8"/>
		<stop  offset="0.1847" style="stop-color:#FFFFCB"/>
		<stop  offset="0.2986" style="stop-color:#FFFFCB"/>
		<stop  offset="0.3078" style="stop-color:#FDF9C1"/>
		<stop  offset="0.3415" style="stop-color:#F5E6A0"/>
		<stop  offset="0.374" style="stop-color:#F0D989"/>
		<stop  offset="0.4043" style="stop-color:#EDD17B"/>
		<stop  offset="0.4303" style="stop-color:#ECCE76"/>
		<stop  offset="0.4892" style="stop-color:#A26F14"/>
		<stop  offset="0.6051" style="stop-color:#A26F14"/>
		<stop  offset="0.6074" style="stop-color:#A67418"/>
		<stop  offset="0.624" style="stop-color:#C19234"/>
		<stop  offset="0.6402" style="stop-color:#D4A848"/>
		<stop  offset="0.6558" style="stop-color:#E0B654"/>
		<stop  offset="0.6699" style="stop-color:#E4BA58"/>
		<stop  offset="0.6716" style="stop-color:#D9A94D"/>
		<stop  offset="0.6756" style="stop-color:#C38737"/>
		<stop  offset="0.6793" style="stop-color:#B36F27"/>
		<stop  offset="0.6828" style="stop-color:#A9601D"/>
		<stop  offset="0.6857" style="stop-color:#A65B1A"/>
		<stop  offset="0.6954" style="stop-color:#AA6222"/>
		<stop  offset="0.7104" style="stop-color:#B57637"/>
		<stop  offset="0.7287" style="stop-color:#C6965B"/>
		<stop  offset="0.7498" style="stop-color:#DEC38B"/>
		<stop  offset="0.7728" style="stop-color:#FDFCC9"/>
		<stop  offset="0.7741" style="stop-color:#FFFFCD"/>
		<stop  offset="0.7957" style="stop-color:#FFFFCD"/>
		<stop  offset="0.8468" style="stop-color:#E5BD5D"/>
		<stop  offset="0.8861" style="stop-color:#BB913B"/>
		<stop  offset="0.9116" style="stop-color:#BB913B"/>
		<stop  offset="0.9147" style="stop-color:#BE9337"/>
		<stop  offset="0.925" style="stop-color:#C39830"/>
		<stop  offset="0.9509" style="stop-color:#C5992E"/>
		<stop  offset="1" style="stop-color:#7F470A"/>
	</linearGradient>
	<path fill="url(#SVGID_11_)" d="M681.836,171.344c1.156-0.478,2.477-1.259,3.746-0.663c0.601,0.627,1.017,1.408,1.439,2.169
		c0.807,5.036,2.405,10.339,6.341,13.833c1.208,1.244,3.094,2.143,3.289,4.065c0.932,3.228-21.681,43.049-23.864,43.807
		c-3.873,1.061-9.519-8.909-9.059-20.169C665.07,185.908,664.777,190.603,681.836,171.344z"/>
	
		<linearGradient id="SVGID_12_" gradientUnits="userSpaceOnUse" x1="626.3388" y1="1458.4951" x2="669.5467" y2="1458.4951" gradientTransform="matrix(1 0 0 -1 0 1702)">
		<stop  offset="0" style="stop-color:#BA8B01"/>
		<stop  offset="0.0438" style="stop-color:#CDAA37"/>
		<stop  offset="0.1121" style="stop-color:#E8D886"/>
		<stop  offset="0.1607" style="stop-color:#F8F4B8"/>
		<stop  offset="0.1847" style="stop-color:#FFFFCB"/>
		<stop  offset="0.2986" style="stop-color:#FFFFCB"/>
		<stop  offset="0.3078" style="stop-color:#FDF9C1"/>
		<stop  offset="0.3415" style="stop-color:#F5E6A0"/>
		<stop  offset="0.374" style="stop-color:#F0D989"/>
		<stop  offset="0.4043" style="stop-color:#EDD17B"/>
		<stop  offset="0.4303" style="stop-color:#ECCE76"/>
		<stop  offset="0.4892" style="stop-color:#A26F14"/>
		<stop  offset="0.6051" style="stop-color:#A26F14"/>
		<stop  offset="0.6074" style="stop-color:#A67418"/>
		<stop  offset="0.624" style="stop-color:#C19234"/>
		<stop  offset="0.6402" style="stop-color:#D4A848"/>
		<stop  offset="0.6558" style="stop-color:#E0B654"/>
		<stop  offset="0.6699" style="stop-color:#E4BA58"/>
		<stop  offset="0.6716" style="stop-color:#D9A94D"/>
		<stop  offset="0.6756" style="stop-color:#C38737"/>
		<stop  offset="0.6793" style="stop-color:#B36F27"/>
		<stop  offset="0.6828" style="stop-color:#A9601D"/>
		<stop  offset="0.6857" style="stop-color:#A65B1A"/>
		<stop  offset="0.6954" style="stop-color:#AA6222"/>
		<stop  offset="0.7104" style="stop-color:#B57637"/>
		<stop  offset="0.7287" style="stop-color:#C6965B"/>
		<stop  offset="0.7498" style="stop-color:#DEC38B"/>
		<stop  offset="0.7728" style="stop-color:#FDFCC9"/>
		<stop  offset="0.7741" style="stop-color:#FFFFCD"/>
		<stop  offset="0.7957" style="stop-color:#FFFFCD"/>
		<stop  offset="0.8468" style="stop-color:#E5BD5D"/>
		<stop  offset="0.8861" style="stop-color:#BB913B"/>
		<stop  offset="0.9116" style="stop-color:#BB913B"/>
		<stop  offset="0.9147" style="stop-color:#BE9337"/>
		<stop  offset="0.925" style="stop-color:#C39830"/>
		<stop  offset="0.9509" style="stop-color:#C5992E"/>
		<stop  offset="1" style="stop-color:#7F470A"/>
	</linearGradient>
	<path fill="url(#SVGID_12_)" d="M664.303,238.218c10.421,6.115,4.538,6.807-10.837,35.939c-1.197,1.896-2.05,4.003-3.412,5.786
		c-0.989,2.766-3.73,7.449-6.192,5.617c-15.779-11.92-15.643-30.19-17.374-42.902c-0.771-6.423,1.465-13.273,6.285-17.661
		c0.056-0.43,20.655-23.296,23.679-23.961C657.316,212.962,653.196,223.96,664.303,238.218z"/>
	
		<linearGradient id="SVGID_13_" gradientUnits="userSpaceOnUse" x1="468.3893" y1="1503.7061" x2="655.918" y2="1503.7061" gradientTransform="matrix(1 0 0 -1 0 1702)">
		<stop  offset="0" style="stop-color:#310908"/>
		<stop  offset="0.0782" style="stop-color:#671E11"/>
		<stop  offset="0.1514" style="stop-color:#C95A10"/>
		<stop  offset="0.2113" style="stop-color:#FDC339"/>
		<stop  offset="0.2662" style="stop-color:#A0796A"/>
		<stop  offset="0.3378" style="stop-color:#C1AA94"/>
		<stop  offset="0.4193" style="stop-color:#496589"/>
		<stop  offset="0.5008" style="stop-color:#4A5877"/>
		<stop  offset="0.5724" style="stop-color:#5F99C9"/>
		<stop  offset="0.604" style="stop-color:#55BCE8"/>
		<stop  offset="0.6789" style="stop-color:#6199C7"/>
		<stop  offset="0.7454" style="stop-color:#FAD88A"/>
		<stop  offset="0.8087" style="stop-color:#FEC63A"/>
		<stop  offset="0.8569" style="stop-color:#E78822"/>
		<stop  offset="0.9334" style="stop-color:#953A11"/>
		<stop  offset="1" style="stop-color:#3F0D05"/>
	</linearGradient>
	<path fill="url(#SVGID_13_)" d="M491.816,166.93c62.294-55.838,161.19,5.61,164.102,17.07
		c-1.283,3.487-33.439,36.384-34.439,37.327c-0.108,0.242-0.324,0.725-0.432,0.966c-11.647,9.232-26.563,31.853-31.669,30.405
		c-5.037-7.606-6.384-32.094-24.701-49.973c-23.777-19.658-50.198-5.751-71.18,3.541c-15.009,6.741-18.792,9.414-21.644,6.773
		C458.865,201.51,486.18,171.619,491.816,166.93z"/>
	
		<linearGradient id="SVGID_14_" gradientUnits="userSpaceOnUse" x1="361.669" y1="1495.7864" x2="478.3969" y2="1495.7864" gradientTransform="matrix(1 0 0 -1 0 1702)">
		<stop  offset="0" style="stop-color:#310908"/>
		<stop  offset="0.0782" style="stop-color:#671E11"/>
		<stop  offset="0.1514" style="stop-color:#C95A10"/>
		<stop  offset="0.2113" style="stop-color:#FDC339"/>
		<stop  offset="0.2662" style="stop-color:#A0796A"/>
		<stop  offset="0.3378" style="stop-color:#C1AA94"/>
		<stop  offset="0.4193" style="stop-color:#496589"/>
		<stop  offset="0.5008" style="stop-color:#4A5877"/>
		<stop  offset="0.5724" style="stop-color:#5F99C9"/>
		<stop  offset="0.604" style="stop-color:#55BCE8"/>
		<stop  offset="0.6789" style="stop-color:#6199C7"/>
		<stop  offset="0.7454" style="stop-color:#FAD88A"/>
		<stop  offset="0.8087" style="stop-color:#FEC63A"/>
		<stop  offset="0.8569" style="stop-color:#E78822"/>
		<stop  offset="0.9334" style="stop-color:#953A11"/>
		<stop  offset="1" style="stop-color:#3F0D05"/>
	</linearGradient>
	<path fill="url(#SVGID_14_)" d="M398.519,125.826c2.793-0.854,5.297,2.733,10.868,9.193c36.493,39.34,46.185,69.326,68.487,119.159
		c1.192,3.084,0.377,3.87-2.765,3.458c-8.84-1.509-19.976-2.611-23.237-4.404c-3.9-2.526-30.255-64.277-44.747-64.335
		c-2.382,2.061-3.471,4.332-9.208,23.165c-14.239,65.417-3.925,50.538-22.692,65.692c-10.386,8.176-10.514,8.767-13.556,8.972
		C370.413,171.609,396.447,126.983,398.519,125.826z"/>
	<path fill="#FFFFFF" d="M416.746,1570.145c-10.379,1.709-10.817-1.568-11.166-5.837c-0.845-63.905-3.108-72.727,0.098-74.263
		c2.768,1.702,4.995,3.072,14.198,67.578C420.266,1562.531,422.151,1569.513,416.746,1570.145z"/>
	<path fill="#FFFFFF" d="M665.65,1613.433c-3.371-0.041-6.937,0.478-10.097-0.976c-2.963-3.074-2.684-3.371,4.769-71.961
		c0.412-3.642,0.104-7.323,3.181-7.05c1.434,2.873,2.379,6.038,2.215,9.291C669.932,1611.975,669.45,1613.734,665.65,1613.433z"/>
	<path fill="#FFFFFF" d="M1046.796,1440.354c-24.986,80.458-25.278,70.249-35.538,64.037c-3.518-2.184-5.165-2.6,31.294-67.855
		c0.622-1.47,1.927-2.462,3.397-2.986C1047.68,1435.365,1047.412,1438.119,1046.796,1440.354z"/>
	<path fill="#FFFFFF" d="M1172.054,1520.84c-11.817,38.49-24.108,66.876-25.179,68.338c-1.859,2.636-6.963-0.755-9.445-2.837
		c-2.874-2.327-4.631-3.295-1.871-8.386c31.673-59.406,31.126-62.633,35.626-63.462
		C1173.098,1516.144,1172.712,1518.682,1172.054,1520.84z"/>
	<path d="M1179.649,1461.361c0.526-3.674,29.531-124.899,44.68-184.224c3.71-0.105,11.235,19.943,12.446,34.459
		c3.49,34.546-16.217,76.165-41.104,123.953c-4.609,8.874-9.044,17.862-14.254,26.397
		C1180.811,1461.803,1180.019,1461.906,1179.649,1461.361z"/>
	<g>
		
			<linearGradient id="SVGID_15_" gradientUnits="userSpaceOnUse" x1="339.8191" y1="429.8166" x2="515.3774" y2="429.8166" gradientTransform="matrix(1 0 0 -1 0 1702)">
			<stop  offset="0" style="stop-color:#F7E4EC"/>
			<stop  offset="0.5" style="stop-color:#FFFCD6"/>
			<stop  offset="1" style="stop-color:#C6E1F1"/>
		</linearGradient>
		<path fill="url(#SVGID_15_)" d="M481.163,1181.286l-0.283,0.041c-1.391,3.639-27.679,40.306-19.609,108.666
			c3.841,32.703,14.172,67.218,14.172,67.218l0.344,0.17c29.001,104.992,53.282,83.508,0.832,105.573l-0.272-0.113
			c-12.194,7.969-50.922,17.342-76.134,15.447c-1.259,0.416-2.739,0.252-4.024-0.041c-9.345,0.722-7.749,2.145-10.812-51.638
			c-9.404-93.315-16.171-146.687-16.171-146.687c-0.673-0.601-0.396-1.619-0.581-2.379c-0.57-3.895-0.606-7.939-2.133-11.623
			c-2.258-6.899-7.325-10.343-8.551-12.317c-2.342-2.159-7.125-8.585-7.461-9.758c-11.339-15.971-15.297-44.182-3.571-60.779
			c3.324-5.835,9.842-12.268,11.839-13.134c2.809-2.942,10.107-7.129,11.629-7.374c5.82-4.883,27.892-7.906,29.568-6.624
			c9.825-0.46,21.597,3.672,25.246,4.578c3.849,0.853,7.734-2.852,7.045-6.716c-1.681-7.113-20.097-8.055-24.141-9.46l-0.349,0.046
			c-4.794-1.41,14.234-43.214,25.734-78.554c5.252,3.532,17.829,20.39,30.518,31.582c3.792,3.546,7.934,6.711,11.613,10.38
			c0.217,0.025,6.016,4.434,7.328,6.074c0.001,0,19.439,13.941,19.439,13.941c1.096,0.392,11.679,6.575,12.836,7.805
			C517.638,1139.286,492.47,1163.029,481.163,1181.286z"/>
		
			<linearGradient id="SVGID_16_" gradientUnits="userSpaceOnUse" x1="979.2892" y1="472.4898" x2="1213.9231" y2="472.4898" gradientTransform="matrix(1 0 0 -1 0 1702)">
			<stop  offset="0" style="stop-color:#F7E4EC"/>
			<stop  offset="0.5" style="stop-color:#FFFCD6"/>
			<stop  offset="1" style="stop-color:#C6E1F1"/>
		</linearGradient>
		<path fill="url(#SVGID_16_)" d="M1105.376,1414.389c-34.225,1.241-41.139-1.665-54.12-3.479
			c-9.913-2.462-5.677,0.996,24.244-59.032c24.433-49.443,34.639-68.17,39.213-101.303c8.43-61.522-51.237-103.795-56.674-112.438
			c-0.674-0.337-9.099-8.476-10.149-9.953c-0.583-0.292-24.576-22.958-24.881-23.283l-0.01-0.293
			c-1.803-1.233-11.018-9.344-11.305-10.262c-1.748-1.004-18.468-16.324-19.809-17.615c-12.096-9.748-14.01-12.302-11.798-14.547
			c0.538-0.544,10.968-9.472,11.336-9.743c6.87-7.69,7.518-8.584,9.039-7.939c1.67,1.552,2.276,3.859,3.479,5.755
			c6.841,13.598,19.043,30.724,19.043,30.724l0.262,0.057c4.137,5.308,8.587,10.365,13.057,15.395
			c0.23,0.115,21.835,21.459,21.916,21.767c0.001,0,53.287,49.412,53.287,49.413l-0.01,0.283c2.45,1.648,80.65,70.679,80.712,72.362
			c1.824,0.987,3.099,2.688,4.65,4.039c16.798,16.46,17.483,14.863,16.952,22.913c-9.919,39.731-29.93,130.485-33.653,133.825
			C1173.631,1407.094,1117.396,1413.834,1105.376,1414.389z"/>
		
			<linearGradient id="SVGID_17_" gradientUnits="userSpaceOnUse" x1="297.5372" y1="796.164" x2="1356.9924" y2="796.164" gradientTransform="matrix(1 0 0 -1 0 1702)">
			<stop  offset="0" style="stop-color:#F7E4EC"/>
			<stop  offset="0.5" style="stop-color:#FFFCD6"/>
			<stop  offset="1" style="stop-color:#C6E1F1"/>
		</linearGradient>
		<path fill="url(#SVGID_17_)" d="M1313.12,1184.328c40.93,111.9,47.45,113.132,42.404,133.46
			c-0.676,3.55-39.01,162.761-39.038,162.842c-1.365,2.951-3.2,2.696-16.325,5.39c-64.252,16.917-119.093,8.802-120.259,3.232
			c-0.221-2.571,0.335-2.026,16.793-32.383c90.501-168.792,59.11-176.397-65.651-287.901
			c-82.776-74.111-119.034-104.671-133.779-169.749c-14.279-51.138-5.49-119.929,24.845-169.908
			c10.685-17.43,16.181-21.335,14.943-25.888c-1.313-3.187-6.11-6.72-10.601-0.093c-33.505,47.193-47.583,96.81-46.453,145.346
			c0.344,4.635-0.144,9.301,0.524,13.921c0.418,34.096,18.993,64.981,12.466,71.406c-57.928,60.477-140.32,97.919-221.829,119.853
			c-5.499,1.345-5.243,0.771-5.647-10.092c-0.553-9.564-4.163-83.99-4.871-89.648c-0.57-3.443-5.077-5.581-7.985-3.53
			c-10.508,6.806,24.508,351.853,27.378,377.688c0,0,10.699,85.124,10.699,85.126c-0.098,1.254-1.295,2.04-2.374,2.436
			c-43.453,12.773-79.437,19.325-129.555,7.173c-7.855-1.982-2.667-0.534-1.033-86.493c4.368-165.754-22.006-357.764-23.401-365.047
			c-1.274-7.01-0.536-11.833-7.245-13.561c-13.142,1.491,14.075,104.867,4.615,105.203c-20.392,0.113-87.58-19.172-123.27-45.595
			c-79.187-56.58-111.402-116.553-149.348-206.644c-5.3-14.502,0.059-2.424,44.315-14.193
			c133.145-38.869,52.658-126.018-0.719-110.958c-40.256,15.208-32.984,55.746,3.176,67.455
			c34.862,8.372,48.757-20.485,34.747-34.028c-20.369-19.343-36.436-2.044-34.495,6.135c0.853,2.595,3.864,4.332,6.531,3.535
			c3.119-1.254,3.525-5.514,6.803-6.583c6.405-1.906,15.624,2.239,15.724,9.81c-0.398,7.926-10.493,12.432-20.256,12.096
			c-18.819-2-36.312-21.666-25.385-36.412c20.677-25.231,70.375-6.944,75.476,25.621c8.258,53.331-110.229,53.551-115.547-37.789
			c0.893-49.911,44.721-114.633,11.988-169.492c-14.731-24.32-40.458-44.121-51.453-64.803
			c-12.146-22.245-13.64-49.264-11.881-61.653c12.72-60.954,96.791-67.678,151.044-114.694
			c62.447-54.995,48.039-96.184,51.001-102.695c1.614,0.175,3.386,0.385,4.609,1.567c42.61,39.605,35.052,53.287,43.2,121.636
			c4.499,43.921,27.794,61.003,64.12,76.678c60.653,25.945,70.656,1.023,78.431,18.278c23.11,51.335,79.436,60.002,87.788,137.114
			c-0.293,0.005-0.874,0.01-1.167,0.015c-0.416-1-4.95-16.044-12.949-23.257c-6.957-6.216-14.438-1.222-16.706,8.263
			c-2.064,9.462,3.327,29.825,13.216,35.842c9.151,6.187,13.708-4.703,16.726-7.215c4.084,71.34-98.826,115.924-161.959,63.046
			c-12.017-9.868-17.418-21.396-22.815-22.065c-2.631,0.442-4.635,2.533-5.473,4.995c0.195,1.562,0.19,3.273,1.254,4.558
			c18.112,23.334,31.894,32.754,51.735,39.634c1.68,0.442,3.016,1.685,3.818,3.206c-8.071,6.198-54.392,7.266-87.228-25.236
			c-31.281-29.66-31.452-49.433-44.089-52.902c-16.555-5.355-96.999,6.041-135.793-45.8
			c-39.603-51.016-16.241-128.986-15.041-137.412c0.381-4.552-8.942-12.643-12.929,4.815
			c-18.659,73.334-0.241,153.564,72.752,176.989c16.271,5.455,44.819,9.519,46.119,9.681c29.288,3.882,39.431,0.777,43.981,4.979
			c18.104,16.72,43.969,100.747,154.734,73.451c19.076-5.17,82.083-6.385,106.785-52.758c2.168-3.628,4.203-8.484,8.844-9.327
			c38.901-6.402,79.799-8.446,147.817-37.543c45.456-19.445,128.341-63.452,164.79-66.92
			c37.277-3.607,123.706,14.957,188.515,82.649c55.432,56.497,60.538,92.756,68.544,145.027
			c10.917,99.064-11.588,135.904-43.37,188.155C1267.859,1073.696,1284.509,1107.371,1313.12,1184.328z"/>
	</g>
	
		<linearGradient id="SVGID_18_" gradientUnits="userSpaceOnUse" x1="1312.9561" y1="594.7668" x2="1489.1194" y2="594.7668" gradientTransform="matrix(1 0 0 -1 0 1702)">
		<stop  offset="0" style="stop-color:#2D0B38"/>
		<stop  offset="0.0679" style="stop-color:#E257F9"/>
		<stop  offset="0.1357" style="stop-color:#813EDD"/>
		<stop  offset="0.1923" style="stop-color:#202FBE"/>
		<stop  offset="0.2557" style="stop-color:#0D285B"/>
		<stop  offset="0.3281" style="stop-color:#2A5867"/>
		<stop  offset="0.3891" style="stop-color:#2C5D58"/>
		<stop  offset="0.4615" style="stop-color:#264C0A"/>
		<stop  offset="0.5294" style="stop-color:#325B11"/>
		<stop  offset="0.5973" style="stop-color:#5B5C14"/>
		<stop  offset="0.6584" style="stop-color:#96621C"/>
		<stop  offset="0.724" style="stop-color:#EA8536"/>
		<stop  offset="0.7941" style="stop-color:#FFF94C"/>
		<stop  offset="0.8665" style="stop-color:#E55322"/>
		<stop  offset="0.9367" style="stop-color:#72180A"/>
		<stop  offset="1" style="stop-color:#2B0401"/>
	</linearGradient>
	<path fill="url(#SVGID_18_)" d="M1437.5,1184.462l-0.026-0.457c-2.118,0.43-9.028-1.334-9.614-1.834
		c-2.335-0.219-6.485-1.727-6.963-2.138c-6.195-1.337-14.456-6.713-16.726-10.066c-2.599-2.111-9.185-12.467-10.37-15.046
		c-1.401-1.419-12.165-18.907-12.338-19.64c-1.419-1.368-6.497-9.023-6.855-10.257c-1.274-1.31-2.677-2.739-3.217-4.491
		c-1.043-0.848-2.174-1.814-2.533-3.14c-1.098-0.81-5.3-4.932-5.611-5.683c-1.125-0.632-2.22-1.321-3.124-2.215l-0.021-0.288
		c-0.92-0.303-1.788-0.704-2.502-1.321l-0.062-0.272c-1.064-0.313-2.076-0.719-2.996-1.285l-0.087-0.252
		c-1.105-0.303-2.348-0.596-3.124-1.465c-5.355-1.889-16.105-9.858-17.178-11.238c-0.586-0.313-1.11-0.683-1.439-1.223
		c-0.797-0.452-1.516-1.018-2.05-1.722c-0.838-0.509-1.583-1.172-2.091-1.978c-1.603-1.459-3.016-3.145-4.167-4.964
		c-0.884-0.766-1.619-1.701-2.102-2.744c-0.694-0.709-1.336-1.536-1.429-2.533c-8.48-7.129-10.864-42.909-3.623-48.534
		c2.598,1.599,5.422,13.022,5.601,14.105c1.002,0.992,1.521,2.585,1.773,3.998c1.274,1.639,2.641,3.314,3.566,5.185
		c0.812,0.678,1.937,1.28,2.266,2.379c1.089,0.565,2.138,1.269,3.068,2.112c0.493,0.206,0.992,0.452,1.485,0.75l0.031,0.298
		c0.94,0.206,1.87,0.586,2.729,1.079c2.084,1.022,2.245,0.543,4.574,1.403c0.822,0.252,2.102-0.077,2.651,0.735
		c1.002,0.048,10.598,1.559,11.798,2.014c1.58,0.029,8.974,1.066,10.848,1.614c0.678-0.087,1.372-0.093,2.086-0.005l0.01,0.468
		c0.939-0.494,4.766,0.15,5.755,0.493c1.966-0.554,8.952,1.982,10.087,5.164c2.013,1.778,9.031,28.048,8.926,29.048
		c0.526,1.281,4.731,14.666,4.697,15.544c0.556,1.057,5.015,11.973,5.051,12.43c0.553,0.803,4.61,8.216,4.686,9.188
		c5.762,6.867,0.77,4.578,16.593,18.571c1.177,0.504,2.317,1.182,3.217,2.133c1.28,0.411,2.508,1.048,3.566,1.922
		c0.647,0.18,1.316,0.421,1.948,0.755l0.128,0.396c1.29,0.123,2.472,0.776,3.535,1.516c1.041,0.174,6.898,2.36,7.703,2.703
		l0.098,0.406c1.557,0.036,3.505,0.406,4.579,1.547c2.107,0.005,4.255,0.689,6.192,1.547c1.321,0.149,2.646,0.354,3.962,0.688
		l0.19,0.355c4.294-0.04,2.436,0.517,12.574,1.47l0.067,0.277c2.811,0.132,13.661,0.663,15.827,3.335
		C1484.11,1182.792,1446.538,1185.86,1437.5,1184.462z"/>
	
		<linearGradient id="SVGID_19_" gradientUnits="userSpaceOnUse" x1="1313.7212" y1="804.0599" x2="1569.418" y2="804.0599" gradientTransform="matrix(1 0 0 -1 0 1702)">
		<stop  offset="0" style="stop-color:#201636"/>
		<stop  offset="0.1" style="stop-color:#132262"/>
		<stop  offset="0.2" style="stop-color:#332327"/>
		<stop  offset="0.3" style="stop-color:#A3306C"/>
		<stop  offset="0.4" style="stop-color:#D5BC35"/>
		<stop  offset="0.5" style="stop-color:#056215"/>
		<stop  offset="0.6" style="stop-color:#27FBFF"/>
		<stop  offset="0.7" style="stop-color:#00006A"/>
		<stop  offset="0.8" style="stop-color:#A21C2F"/>
		<stop  offset="0.9" style="stop-color:#7A0F0F"/>
		<stop  offset="1" style="stop-color:#F9D648"/>
	</linearGradient>
	<path fill="url(#SVGID_19_)" d="M1540.267,1051.356c5.035,1.778,28.94,14.573,29.151,23.638
		c-1.536,0.908-16.414-3.738-17.415-4.054c-10.188,0.359-13.97,2.51-23.196,7.4c-0.041,0.052-7.812,6.552-7.862,6.588
		c-0.11,0.348-5.947,8.234-6.084,8.386c0,0.001-5.046,12.193-5.046,12.194c-1.267,8.793-2.932,6.113,0.041,23.509
		c0,0.001,4.624,10.363,4.625,10.365c1.362,1.583,6.819,8.063,8.304,9.64c5.36,3.172,9.328,4.408,9.054,8.129
		c-2.355,3.688-36.743,7.511-38.031,5.442c-1.274,0.133-9.913,0.252-11.105-0.653c-1.521,0.349-3.088,0.118-4.604,0.015l0.062-0.396
		c-1.619,0.128-3.263,0.005-4.804-0.468c-0.73-0.01-1.413-0.216-2.04-0.473c-3.819-0.067-20.766-3.614-29.938-7.775
		c-16.922-6.369-27.303-25.227-26.757-27.255c-2.207-3.355-12.096-34.68-11.901-36.474c-1.833-4.228-6.042-19.722-6.022-20.097
		c-1.115-1.819-2.395-3.612-3.165-5.581c-1.105-0.946-2.451-1.809-3.114-3.088c-1.605-0.619-2.91-1.506-4.676-2.533
		c-8.508-1.938-24.866-4.568-24.866-4.568c-1.363,0.032-3.181-0.173-4.568-0.632c-13.651,0.077-18.141-4.399-20.77-8.941
		c-0.714-0.606-1.203-1.444-1.413-2.328c-7.428-8.996-8.752-48.348-4.769-53.174c0.719-1.696,1.578-3.35,2.754-4.769
		c0.18-1.059,0.755-1.989,1.434-2.795c0.514-1.156,1.053-2.318,1.834-3.32l0.272-0.082c0.48-1.383,5.503-10.34,6.202-11.187
		c1.305-3.299,3.037-6.423,4.568-9.62c6.981-17.647,9.013-23.586,9.013-23.586c0.216-1.262,2.676-11.113,3.356-12.06
		c0,0,9.858-46.626,5.534-82.557c-0.88-23.983,4.146-20.661,9.763-46.417c0.115-0.519,2.862-12.492,3.273-12.924
		c-0.365-1.691,0.421-3.34,0.653-4.995c2.642-17.168-1.494-25.618-1.362-28.54c-0.091-0.182-4.141-10.456-4.162-10.658
		c-1.28-2.194-2.79-4.327-3.725-6.675c-1.737-1.85-2.991-4.085-4.671-5.976c-4.09-5.672-12.992-11.983-13.992-12.883
		c-1.29-0.622-2.502-1.393-3.597-2.287c-0.347-0.131-8.618-4.25-8.71-4.296c-1.439-0.319-2.79-0.904-4.095-1.542
		c-9.76-1.794-4.934-8.952,5.087-11.192c1.69-0.976,5.153-1.998,6.151-2.148c13.507-6.403,41.085-6.358,54.058,3.561
		c5.008,2.298,15.36,11.852,16.829,14.928c1.953,1.701,3.607,4.003,4.548,6.413c1.938,2.045,11.283,19.786,8.525,42.877
		c-0.862,10.127-5.007,22.699-5.92,24.336c-0.7,3.153-5.281,15.704-6.171,16.824c0,0-21.744,53.525-29.758,78.58
		c-7.379,20.84-14.167,52.182-14.424,53.185c0.346,5.378-6.389,19.647,1.074,53.75c0,0,2,5.427,6.824,13.941
		c0,0,1.92,2.426,6.048,6.572c1.089,0.596,2.107,1.341,3.094,2.133c1.125,0.339,2.184,0.889,3.212,1.495
		c0.694,0.149,1.352,0.468,1.984,0.848c1.459,0.298,2.857,0.904,4.137,1.691c1.469,0.113,2.883,0.606,4.291,1.089
		c11.008,3.124,11.686,2.562,15.108,2.96c2.04-0.637,4.085-1.28,6.135-1.901c1.071-0.757,11.013-4.22,10.58-19.09
		c0.292-10.856-7.551-19.86-18.668-18.612c-5.754,3.25-3.839,2.644-6.773,6.798c-1.341,5.333-2.048,4.718,1.393,10.262
		c1.13,0.771,2.318,1.454,3.577,2.035c0.94,0.144,1.881,0.36,2.857,0.478c0.432-1.352-1.182-1.588-2.014-2.086
		c-7.943-3.373-1.791-17.075,6.038-12.908c14.998,5.825,13.689,35.885-10.303,32.178c-1.064-0.057-2.163-0.036-3.093-0.55
		c-3.939-0.667-9.891-3.67-11.983-5.359l-0.072-0.262c-2.424-0.998-6.956-4.981-7.79-6.572c-2-1.56-4.882-6.001-5.067-7.338
		c-11.365-17.296-3.228-66.417,4.681-84.7c-0.114-1.001,3.655-12.503,4.722-14.681c-0.044-0.489,2.403-8.134,3.52-9.84
		c-0.027-1.354,3.97-11.903,5.149-14.023l-0.093-0.236c0.908-2.637,6.982-18.114,8.206-19.696
		c0.054-1.479,5.008-12.381,5.755-13.751c0,0,13.845-32.208,15.837-38.288c4.29-11.404,7.025-24.388,7.025-24.388
		c3.7-23.776,0.296-34.675,0-39.388c-0.709-1.11-0.792-2.451-1.115-3.679c-6.364-26.234-26.295-38.387-27.045-39.387
		c-1.49-0.673-2.944-1.464-4.162-2.544c-0.537-0.215-7.419-3.551-7.785-3.751c0,0-7.773-2.512-7.775-2.513
		c-0.056-0.003-2.032-0.492-3.458-0.673l-0.231-0.365c-6.568,0.343-0.774-2.199-26.346,0.632c-0.704,0.37-1.49,0.565-2.251,0.581
		c-1.911,0.617-3.864,1.136-5.843,1.403l-0.082,0.308c-0.791,0.216-1.588,0.37-2.369,0.504c-1.362,0.992-3.124,1.213-4.681,1.763
		c-0.576,0.56-1.418,0.699-2.127,0.93c-0.57,0.714-1.716,0.745-2.508,1.11c-0.827,0.709-1.886,1.069-2.914,1.341
		c-0.766,0.879-1.978,1.182-3.006,1.644c-0.76,0.822-1.819,1.269-2.831,1.66c-0.792,1.007-2.061,1.464-3.155,2.025
		c-1.722,1.655-7.146,5.439-8.037,3.006c-1.675-1.439-2.919-3.289-4.491-4.82c-1.732-1.634-2.677-4.316-1.67-6.567
		c0.735-1.012,6.868-7.502,8.211-8.294c1.273-2.023,6.185-5.594,7.204-6.12c0.714-0.668,1.516-1.285,2.472-1.598
		c0.76-0.812,1.613-1.593,2.688-1.978c0.899-0.843,1.87-1.665,3.042-2.122c1.061-1.105,11.566-8.094,12.919-8.669
		c7.753-6.603,37.741-18.677,42.599-18.787c1.094-0.445,5.469-1.658,7.652-1.377l0.144-0.401c2.409-0.314,3.002-0.473,4.507-0.488
		c1.467-1.263,18.446-0.986,20.385-0.94l0.216,0.247c1.906,0.01,3.926-0.082,5.74,0.637c1.254,0.092,2.539,0.159,3.777,0.493
		l0.082,0.298c1.824,0.098,3.705,0.391,5.36,1.238c5.159,1.041,12.125,4.758,16.706,7.78l-0.021,0.308
		c4.177,1.688,14.117,11.473,17.595,17.107c18.431,20.926-7.074,101.965-10.966,109.72c0.054,1.256-3.609,13.075-4.62,15.308
		c-0.013,1.183-8.249,28.295-8.705,29.295c-0.006,0.588-7.07,27.762-7.204,28.273c-0.171,1.077-3.804,19.384-4.136,20.215
		c0.154,1.542-0.406,3.088-0.555,4.63c-4.341,25.054-0.195,49.783-0.195,49.783c0.709,0.781,0.637,1.968,0.915,2.96
		c4.195,21.063,9.618,26.59,7.667,36.407c-9.739,45.408,8.079,65.192,8.191,66.581c0.318,0.261,6.617,6.277,6.706,6.68
		c1.84,0.745,3.458,1.942,5.262,2.795c1.655,0.843,3.448,1.372,5.139,2.169c1.506,0.19,3.011,0.529,4.43,1.12
		c7.642,0.42,6.834,3.203,6.834,5.925c-0.47,5.233-0.43,17.164-5.544,24.234c-0.519,1.68-1.66,3.073-2.58,4.548
		c-10.905,15.482-11.144,15.176-15.37,16.459c-0.179-5.774,10.212-28.615-16.454-38.586c-6.013-2.412-10.793-3.955-24.855,3.869
		c-1.963,1.536-3.561,3.484-5.56,4.959c-1.12,2.194-2.539,4.26-3.69,6.454c-0.092,1-6.048,17.754,2.77,33.529
		c0.812,1.927,2.287,3.525,2.996,5.503c2.403,2.228,5.975,10.083,17.99,13.412c9.873,1.84,9.533,0.271,14.465-0.75
		c0.001-0.001,32.511-13.72,32.512-13.72l0.021-0.272c1.115-0.761,2.364-1.31,3.648-1.742c1.059-0.899,2.333-1.511,3.618-2.04
		c0.848-0.745,1.881-1.243,2.965-1.572l-0.041-0.313c0.956-0.704,2.014-1.269,3.124-1.716c0.48-0.588,5.195-4.06,7.379-5.067
		c0.982-1.125,2.251-2.014,3.69-2.477c0.904-1.305,2.451-2.004,3.823-2.744c1.459-1.598,3.325-2.806,5.144-3.972
		c3.504-3.964,6.131-4.947,10.025-10.848c1.136-1.485,1.824-3.299,3.176-4.614c0.94-2.184,2.405-4.09,3.53-6.182
		C1533.003,1055.688,1535.526,1047.875,1540.267,1051.356z"/>
	
		<linearGradient id="SVGID_20_" gradientUnits="userSpaceOnUse" x1="1418.5513" y1="619.1248" x2="1459.6" y2="619.1248" gradientTransform="matrix(1 0 0 -1 0 1702)">
		<stop  offset="0" style="stop-color:#2D0B38"/>
		<stop  offset="0.0679" style="stop-color:#E257F9"/>
		<stop  offset="0.1357" style="stop-color:#813EDD"/>
		<stop  offset="0.1923" style="stop-color:#202FBE"/>
		<stop  offset="0.2557" style="stop-color:#0D285B"/>
		<stop  offset="0.3281" style="stop-color:#2A5867"/>
		<stop  offset="0.3891" style="stop-color:#2C5D58"/>
		<stop  offset="0.4615" style="stop-color:#264C0A"/>
		<stop  offset="0.5294" style="stop-color:#325B11"/>
		<stop  offset="0.5973" style="stop-color:#5B5C14"/>
		<stop  offset="0.6584" style="stop-color:#96621C"/>
		<stop  offset="0.724" style="stop-color:#EA8536"/>
		<stop  offset="0.7941" style="stop-color:#FFF94C"/>
		<stop  offset="0.8665" style="stop-color:#E55322"/>
		<stop  offset="0.9367" style="stop-color:#72180A"/>
		<stop  offset="1" style="stop-color:#2B0401"/>
	</linearGradient>
	<path fill="url(#SVGID_20_)" d="M1428.928,1102.881l0.046-0.308c-0.622-0.37-1.202-0.729-1.634-1.254l0.036-0.319
		c-1.069-0.925-2.158-1.968-2.616-3.314c-0.678-0.457-1.197-1.187-1.228-1.994c-0.843,0.185-0.75-1.053-1.007-1.526
		c-0.683-0.992-1.578-2.096-1.367-3.361c-0.719-0.781-1.084-1.783-1.079-2.811c-1.937-3.757-2.115-14.701-0.056-18.597
		c0.036-0.863,0.509-1.593,1.12-2.163c-0.101-1.152,1.147-2.224,2.055-2.939c-0.046-0.807,0.884-1.192,1.48-1.526
		c0.694-1.13,2.091-2.102,3.448-2.189l0.026-0.55c1.11-0.23,1.958-0.922,3.772-0.848l0.021-0.36
		c7.332-1.453,13.784,2.03,14.229,3.422c0.478,0.185,1.3,0.308,1.413,0.971c0.596,0.442,1.244,0.93,1.619,1.634l-0.031,0.344
		c0.504,0.401,1.264,0.827,1.238,1.619c3.494,4.502,2.59,11.764-0.031,13.453c-0.327,1.061-0.999,1.198-2.791,2.225
		c-1.946,0.01-2.182-0.309-3.797-0.632l0.031-0.401c-2.393-0.771-2.42-1.677-3.104-9.404c-0.838-0.817-1.619-1.685-2.23-2.657
		c-0.586-0.103-1.13-0.272-1.629-0.509c-1.048-0.015-2.086-0.005-3.104-0.005c-0.139,0.704-1.074,0.791-1.578,1.136
		c-3.528,7.152-1.201,12.276-0.976,13.736c0.509,0.534,1.161,1.182,1.038,2.035c0.586,0.483,1.177,1.033,1.536,1.752l-0.015,0.385
		c0.925,0.776,2.333,1.377,2.734,2.585c0.915,0.272,2.091,0.57,2.569,1.511c1.012,0.082,2.05,0.37,2.95,0.915
		c0.997,0.134,2.019,0.319,3.027,0.56c0.786-0.099,3.775-0.179,4.697,0.072l0.123-0.416c0.76-0.406,1.624-0.56,2.502-0.519
		c0.341-0.719,6.04-3.198,7.235-3.556c-0.278,3.207-1.814,6.279-3.89,8.705c-0.37,1.3-1.675,2.168-2.631,3.068l-0.005,0.288
		c-0.778,0.857-4.701,4.172-5.786,3.782l-0.005,0.447c-4.551,2.794-11.719,2.116-13.895,0.534c-0.694-0.262-1.352-0.534-1.953-0.909
		l0.062-0.355C1429.776,1103.563,1429.405,1103.458,1428.928,1102.881z"/>
	
		<linearGradient id="SVGID_21_" gradientUnits="userSpaceOnUse" x1="1291.8484" y1="870.3989" x2="1548.5184" y2="870.3989" gradientTransform="matrix(1 0 0 -1 0 1702)">
		<stop  offset="0" style="stop-color:#2D0B38"/>
		<stop  offset="0.0679" style="stop-color:#E257F9"/>
		<stop  offset="0.1357" style="stop-color:#813EDD"/>
		<stop  offset="0.1923" style="stop-color:#202FBE"/>
		<stop  offset="0.2557" style="stop-color:#0D285B"/>
		<stop  offset="0.3281" style="stop-color:#2A5867"/>
		<stop  offset="0.3891" style="stop-color:#2C5D58"/>
		<stop  offset="0.4615" style="stop-color:#264C0A"/>
		<stop  offset="0.5294" style="stop-color:#325B11"/>
		<stop  offset="0.5973" style="stop-color:#5B5C14"/>
		<stop  offset="0.6584" style="stop-color:#96621C"/>
		<stop  offset="0.724" style="stop-color:#EA8536"/>
		<stop  offset="0.7941" style="stop-color:#FFF94C"/>
		<stop  offset="0.8665" style="stop-color:#E55322"/>
		<stop  offset="0.9367" style="stop-color:#72180A"/>
		<stop  offset="1" style="stop-color:#2B0401"/>
	</linearGradient>
	<path fill="url(#SVGID_21_)" d="M1502.251,950.604c6.555,31.176,66.74,93.181-17.995,138.008c-2.636,1.685-5.616,3.366-8.859,2.477
		c0.338-4.491,2.586-5.715,7.893-12.595c45.441-71.571-60.927-109.705-28.75-232.332c13.454-70.484,48.942-128.089,34.953-181.413
		c-21.206-48.369-89.951-66.241-171.326,0.478c-14.568,13.03-8.94,16.67-23.149,1.125c-1.518-2.144-4.996-5.242-1.973-8.047
		c165.387-168.549,297.585-72.775,242.969,133.83C1523.057,849.512,1496.61,920.244,1502.251,950.604z"/>
	
		<linearGradient id="SVGID_22_" gradientUnits="userSpaceOnUse" x1="1302.9241" y1="1025.2878" x2="1581.6528" y2="1025.2878" gradientTransform="matrix(1 0 0 -1 0 1702)">
		<stop  offset="0" style="stop-color:#2D0B38"/>
		<stop  offset="0.0679" style="stop-color:#E257F9"/>
		<stop  offset="0.1357" style="stop-color:#813EDD"/>
		<stop  offset="0.1923" style="stop-color:#202FBE"/>
		<stop  offset="0.2557" style="stop-color:#0D285B"/>
		<stop  offset="0.3281" style="stop-color:#2A5867"/>
		<stop  offset="0.3891" style="stop-color:#2C5D58"/>
		<stop  offset="0.4615" style="stop-color:#264C0A"/>
		<stop  offset="0.5294" style="stop-color:#325B11"/>
		<stop  offset="0.5973" style="stop-color:#5B5C14"/>
		<stop  offset="0.6584" style="stop-color:#96621C"/>
		<stop  offset="0.724" style="stop-color:#EA8536"/>
		<stop  offset="0.7941" style="stop-color:#FFF94C"/>
		<stop  offset="0.8665" style="stop-color:#E55322"/>
		<stop  offset="0.9367" style="stop-color:#72180A"/>
		<stop  offset="1" style="stop-color:#2B0401"/>
	</linearGradient>
	<path fill="url(#SVGID_22_)" d="M1564.834,792.155c-1.507,3.282-20.563,33.292-25.549,33.144
		c-3.696-14.737,57.236-147.515-17.934-233.997c-16.701-17.678-39.725-27.35-56.268-28.257l0.313-0.211
		c-91.872-12.659-144.679,64.828-158.911,69.397c-1.213-0.128-2.41-0.262-3.561-0.576c9.429-19.934,43.1-73.816,87.659-93.625
		l0.236-0.308c19.232-6.686,48.138-20.443,96.755,5.93C1565.875,584.459,1606.929,728.7,1564.834,792.155z"/>
	<circle fill="#E95FBE" cx="444.251" cy="556.168" r="60"/>
	<path d="M482.016,444.065c-1.668,5.327-2.301,2.798-17.893,3.592c-0.438,4.648,5.349,12.154,16.536,12.44
		c3.448-0.355,6.906-1.069,10.395-0.683c-0.275,8.473-3.415,9.169-12.091,20.164c11.885,4.821,18.588-5.826,24.136-5.108
		c2.681,9.729-8.18,20.327,7.42,29.881c0.149-0.087,0.442-0.267,0.591-0.355c1.079-8.904-1.119-13.567,4.532-16.428
		c2.636-0.236,5.164,2.127,5.087,4.779c-1.854,13.028,0.351,16.215,8.412,23.483c0.981,1.1,2.544,0.755,3.844,0.622
		c0.606-5.128-1.017-10.185-0.689-15.303c0.442-1.362,1.86-2.143,2.934-3.006c4.139,2.227,3.431,6.841,3.335,8.443
		c-0.95,7.7,2.759,18.383,13.972,19.573c0.513-6.214-4.63-7.605-0.771-19.213c0.432-1.295,1.778-1.901,2.893-2.503
		c4.339,6.16-1.737,20.212,14.455,25.616c1.13-0.062,2.276-0.128,3.402-0.349c0.627-3.448-2.631-5.611-3.294-8.741
		c-1.172-4.138-0.677-12.655,3.546-14.717c3.003-1.445,3.877,4.054,5.617,7.076c4.475,9.08,15.157,12.681,20.385,8.725
		c-0.894-3.217-4.419-4.383-6.1-7.05c-5.472-7.546-0.592-17.72-9.517-24.393c-8.672-6.459-24.596-2.059-46.551-12.076
		c-29.078-13.318-41.807-55.688-53.359-53.611c-6.967,1.449-11.47,8.152-21.202,5.57c-1.732-0.319-4.029-0.93-5.447,0.37
		c0.093,2.857,2.004,5.211,3.916,7.163C469.715,447.078,479.329,438.349,482.016,444.065z"/>
	<path d="M699.719,651.11c3.892-34.733-29.046-36.264-27.98,3.669C673.265,679.369,694.409,685.486,699.719,651.11z"/>
</g>
</svg>
