<svg id="Layer_1" enable-background="new 0 0 512 512" height="512" viewBox="0 0 512 512" width="512" xmlns="http://www.w3.org/2000/svg"><g><path d="m110 406h-31.332l40.379-85.739c1.459-3.098 1.231-6.727-.603-9.618s-5.02-4.643-8.444-4.643h-100c-5.522 0-10 4.477-10 10v40c0 5.523 4.478 10 10 10h16.89l-25.586 45.063c-.855 1.505-1.304 3.206-1.304 4.937v40c0 5.523 4.478 10 10 10h100c5.522 0 10-4.477 10-10v-40c0-5.523-4.478-10-10-10zm-10 40h-80v-27.359l32.763-57.704c1.758-3.096 1.737-6.892-.054-9.969-1.791-3.076-5.083-4.969-8.643-4.969h-24.066v-20h74.237l-40.379 85.739c-1.459 3.098-1.231 6.727.603 9.618s5.02 4.644 8.444 4.644h37.095z"/><path d="m291 176h-150c-5.522 0-10 4.477-10 10v50c0 5.523 4.478 10 10 10h63.838l-71.783 93.928c-1.333 1.743-2.055 3.877-2.055 6.072v50c0 5.523 4.478 10 10 10h150c5.522 0 10-4.477 10-10v-50c0-5.523-4.478-10-10-10h-66.422l74.262-93.792c1.399-1.767 2.16-3.954 2.16-6.208v-50c0-5.523-4.478-10-10-10zm-10 56.521-84.935 107.272c-2.381 3.007-2.832 7.11-1.162 10.562s5.167 5.645 9.002 5.645h77.095v30h-130v-36.616l82.012-107.312c2.31-3.022 2.705-7.094 1.02-10.504-1.687-3.41-5.161-5.568-8.965-5.568h-74.067v-30h130z"/><path d="m465.13 154.56c-1.45 2.24-1.95 4.92-1.39 7.53s2.1 4.85 4.35 6.3c1.62 1.05 3.5 1.61 5.42 1.61 3.41 0 6.56-1.71 8.41-4.57v-.01l28.47-43.99c1.07-1.64 1.61-3.47 1.61-5.43v-60c0-2.63-1.07-5.21-2.931-7.07-1.859-1.86-4.439-2.93-7.069-2.93h-180c-2.63 0-5.21 1.07-7.07 2.93s-2.93 4.44-2.93 7.07v60c0 2.63 1.069 5.21 2.93 7.07s4.44 2.93 7.07 2.93h84.96l-93.18 134.3c-1.16 1.68-1.78 3.65-1.78 5.7v60c0 2.63 1.069 5.21 2.93 7.07s4.44 2.93 7.07 2.93h180c2.63 0 5.21-1.07 7.069-2.93 1.86-1.86 2.931-4.44 2.931-7.07v-60c0-2.63-1.07-5.21-2.931-7.07-1.859-1.86-4.439-2.93-7.069-2.93h-78.71l9.72-15.02c1.45-2.24 1.94-4.91 1.38-7.52-.56-2.62-2.1-4.85-4.34-6.31-1.62-1.05-3.5-1.6-5.43-1.6-3.41 0-6.551 1.7-8.4 4.56l-19.71 30.45c-1.99 3.08-2.14 7-.39 10.22s5.12 5.22 8.79 5.22h87.09v40h-160v-46.87l102.28-147.43c2.13-3.07 2.38-7.03.64-10.34-1.73-3.3-5.12-5.36-8.86-5.36h-94.06v-40h160v47.05z"/><circle cx="449.064" cy="197.77" r="10"/></g></svg>
